<svg width="903" height="903" viewBox="0 0 903 903" fill="none" xmlns="http://www.w3.org/2000/svg">
<mask id="mask0_811_2" style="mask-type:luminance" maskUnits="userSpaceOnUse" x="325" y="351" width="254" height="229">
<path d="M504.79 360.901C509.867 351.923 521.423 348.626 529.617 354.939C546.421 367.886 559.746 384.904 568.231 404.486C579.2 429.811 581.462 458.015 574.67 484.743C567.877 511.47 552.405 535.233 530.646 552.357C508.889 569.482 482.055 579.017 454.293 579.486C426.53 579.955 399.384 571.335 377.051 554.955C354.716 538.576 338.44 515.351 330.733 488.869C323.026 462.387 324.321 434.121 334.415 408.441C342.221 388.583 354.955 371.125 371.306 357.617C379.277 351.031 390.94 353.934 396.322 362.737C401.703 371.538 398.695 382.883 391.156 389.953C381.662 398.854 374.207 409.779 369.405 421.998C362.31 440.044 361.4 459.908 366.817 478.52C372.231 497.132 383.673 513.454 399.368 524.965C415.063 536.476 434.141 542.535 453.651 542.205C473.163 541.875 492.021 535.173 507.314 523.139C522.605 511.103 533.479 494.404 538.251 475.621C543.026 456.836 541.436 437.014 533.727 419.219C528.507 407.169 520.68 396.504 510.889 387.928C503.111 381.117 499.716 369.88 504.79 360.901Z" fill="white"/>
</mask>
<g mask="url(#mask0_811_2)">
<path d="M504.79 360.901C509.867 351.923 521.423 348.626 529.617 354.939C546.421 367.886 559.746 384.904 568.231 404.486C579.2 429.811 581.462 458.015 574.67 484.743C567.877 511.47 552.405 535.233 530.646 552.357C508.889 569.482 482.055 579.017 454.293 579.486C426.53 579.955 399.384 571.335 377.051 554.955C354.716 538.576 338.44 515.351 330.733 488.869C323.026 462.387 324.321 434.121 334.415 408.441C342.221 388.583 354.955 371.125 371.306 357.617C379.277 351.031 390.94 353.934 396.322 362.737C401.703 371.538 398.695 382.883 391.156 389.953C381.662 398.854 374.207 409.779 369.405 421.998C362.31 440.044 361.4 459.908 366.817 478.52C372.231 497.132 383.673 513.454 399.368 524.965C415.063 536.476 434.141 542.535 453.651 542.205C473.163 541.875 492.021 535.173 507.314 523.139C522.605 511.103 533.479 494.404 538.251 475.621C543.026 456.836 541.436 437.014 533.727 419.219C528.507 407.169 520.68 396.504 510.889 387.928C503.111 381.117 499.716 369.88 504.79 360.901Z" stroke="#007BC0" stroke-width="70"/>
</g>
<path d="M432 353.149C432 342.573 441.178 334 452.5 334C463.822 334 473 342.573 473 353.149V404.851C473 415.427 463.822 424 452.5 424C441.178 424 432 415.427 432 404.851V353.149Z" fill="#007BC0"/>
<path d="M432 137.221C432 126.605 440.73 118 451.5 118C462.27 118 471 126.605 471 137.221V246.779C471 257.395 462.27 266 451.5 266C440.73 266 432 257.395 432 246.779V137.221Z" fill="#007BC0"/>
<path d="M152.733 301.168C143.425 295.815 140.237 283.962 145.61 274.693C150.984 265.423 162.887 262.249 172.195 267.599L268.267 322.833C277.575 328.184 280.763 340.036 275.39 349.306C270.016 358.575 258.113 361.752 248.805 356.401L152.733 301.168Z" fill="#007BC0"/>
<path d="M172.195 643.401C162.887 648.752 150.984 645.575 145.61 636.306C140.237 627.036 143.425 615.184 152.733 609.833L248.805 554.599C258.113 549.249 270.016 552.423 275.39 561.693C280.763 570.962 277.575 582.815 268.267 588.168L172.195 643.401Z" fill="#007BC0"/>
<path d="M737.338 602.602C746.577 607.839 749.744 619.44 744.408 628.512C739.075 637.584 727.26 640.693 718.02 635.456L622.661 581.398C613.422 576.159 610.258 564.559 615.591 555.486C620.927 546.414 632.739 543.307 641.979 548.544L737.338 602.602Z" fill="#007BC0"/>
<path d="M721.02 267.599C730.26 262.249 742.075 265.423 747.408 274.693C752.744 283.962 749.577 295.815 740.338 301.168L644.979 356.401C635.739 361.752 623.927 358.575 618.591 349.306C613.258 340.036 616.422 328.184 625.661 322.833L721.02 267.599Z" fill="#007BC0"/>
<path d="M432 667.221C432 656.605 440.73 648 451.5 648C462.27 648 471 656.605 471 667.221V776.779C471 787.395 462.27 796 451.5 796C440.73 796 432 787.395 432 776.779V667.221Z" fill="#007BC0"/>
<path d="M147.188 87.9602C147.188 87.9602 149.41 86.3142 153.851 83.0185C158.292 79.7247 164.303 77.2017 171.882 75.4514C179.741 73.5389 188.239 74.98 197.374 79.771C203.208 82.7403 209.609 86.6871 216.576 91.6075C223.663 96.0894 230.327 100.811 236.571 105.776C243.096 110.58 248.413 114.589 252.524 117.805C256.633 121.024 258.688 122.631 258.688 122.631L248.473 47.0765C248.473 47.0765 248.725 45.2584 249.23 41.6219C250.017 37.8244 252.145 33.442 255.615 28.4745C259.367 23.346 265.749 18.5652 274.761 14.1324C301.24 1.1553 315.241 3.70922 316.768 21.7937C316.985 25.3872 317.455 31.9945 318.181 41.6159C318.745 50.9593 319.314 61.6 319.89 73.5369C320.584 85.0373 321.195 96.3966 321.727 107.615C322.541 118.675 323.163 127.797 323.598 134.983C324.031 142.17 324.248 145.763 324.248 145.763L385.579 246.612C385.579 246.612 386.307 247.866 387.764 250.375C389.339 252.446 390.397 255.556 390.937 259.708C391.316 263.579 389.991 268.057 386.964 273.144C383.773 277.95 377.553 283.01 368.303 288.323C355.97 295.405 345.889 298.965 338.061 299C330.513 298.872 324.904 297.261 321.238 294.161C317.409 290.784 314.929 288.12 313.797 286.167C313.148 285.052 310.581 280.951 306.093 273.861C301.885 266.611 296.95 258.106 291.285 248.347C285.621 238.587 279.818 228.908 273.874 219.311C268.209 209.551 263.376 201.546 259.373 195.292C255.65 188.88 253.79 185.673 253.79 185.673L146.41 129.118C146.41 129.118 144.84 128.348 141.702 126.804C138.564 125.26 135.742 122.977 133.241 119.952C130.856 116.488 130.375 112.118 131.796 106.84C133.218 101.562 138.348 95.2684 147.188 87.9602Z" fill="#007BC0"/>
<path d="M901.814 366.364C901.814 366.364 902.138 369.132 902.785 374.666C903.431 380.201 902.623 386.714 900.359 394.202C898.094 402.016 892.595 408.691 883.862 414.225C878.363 417.806 871.732 421.389 863.968 424.97C856.529 428.877 849.088 432.296 841.649 435.226C834.21 438.482 828.063 441.086 823.211 443.04C818.359 444.993 815.933 445.97 815.933 445.97L886.773 475.273C886.773 475.273 888.228 476.412 891.14 478.692C894.051 481.296 896.801 485.367 899.388 490.901C901.975 496.762 902.946 504.738 902.299 514.832C900.359 544.461 891.14 555.368 874.643 547.554C871.407 545.926 865.424 542.996 856.69 538.763C848.281 534.53 838.738 529.646 828.063 524.111C817.713 518.901 807.524 513.693 797.495 508.483C787.467 503.599 779.219 499.53 772.75 496.274C766.281 493.017 763.046 491.39 763.046 491.39L644.657 493.832C644.657 493.832 643.201 493.832 640.29 493.832C637.703 494.158 634.467 493.505 630.586 491.878C627.028 490.251 623.793 486.832 620.882 481.622C618.295 476.412 617 468.436 617 457.691C617 443.366 618.941 432.784 622.822 425.947C626.704 419.435 630.91 415.364 635.438 413.737C640.29 412.11 643.847 411.295 646.112 411.295C647.407 411.295 652.259 411.133 660.668 410.807C669.078 410.807 678.945 410.807 690.266 410.807C701.586 410.807 712.909 410.645 724.23 410.318C735.551 410.318 744.932 410.156 752.372 409.83C759.811 409.83 763.531 409.83 763.531 409.83L866.394 344.875C866.394 344.875 867.85 343.898 870.761 341.945C873.672 339.991 877.069 338.688 880.95 338.038C885.156 337.711 889.199 339.503 893.08 343.41C896.962 347.317 899.873 354.969 901.814 366.364Z" fill="#007BC0"/>
<path d="M1.18603 538.037C1.18603 538.037 0.862499 535.309 0.215627 529.852C-0.431245 524.396 0.377297 517.976 2.64164 510.594C4.90598 502.89 10.4049 496.309 19.1385 490.853C24.6374 487.323 31.2686 483.791 39.0318 480.261C46.471 476.409 53.912 473.039 61.3512 470.15C68.7903 466.94 74.9368 464.372 79.7889 462.446C84.6409 460.521 87.0669 459.558 87.0669 459.558L16.2273 430.669C16.2273 430.669 14.7717 429.547 11.8605 427.299C8.94928 424.732 6.19973 420.718 3.61205 415.262C1.02436 409.485 0.0539575 401.621 0.70083 391.67C2.64164 362.46 11.8605 351.708 28.3574 359.412C31.5921 361.016 37.5762 363.905 46.3099 368.078C54.7194 372.251 64.2624 377.066 74.9368 382.522C85.2872 387.659 95.4764 392.793 105.505 397.929C115.533 402.744 123.781 406.756 130.25 409.966C136.719 413.177 139.954 414.781 139.954 414.781L258.343 412.373C258.343 412.373 259.799 412.373 262.71 412.373C265.297 412.052 268.533 412.695 272.414 414.299C275.972 415.904 279.207 419.274 282.118 424.41C284.705 429.547 286 437.41 286 448.002C286 462.125 284.059 472.557 280.178 479.298C276.296 485.717 272.09 489.73 267.562 491.335C262.71 492.939 259.153 493.742 256.888 493.742C255.593 493.742 250.741 493.902 242.332 494.224C233.922 494.224 224.055 494.224 212.734 494.224C201.414 494.224 190.091 494.383 178.77 494.705C167.449 494.705 158.068 494.865 150.628 495.187C143.189 495.187 139.469 495.187 139.469 495.187L36.6058 559.222C36.6058 559.222 35.1502 560.185 32.239 562.111C29.3278 564.037 25.9314 565.322 22.0497 565.963C17.8446 566.284 13.8013 564.518 9.91968 560.667C6.03806 556.815 3.12684 549.271 1.18603 538.037Z" fill="#007BC0"/>
<path d="M288.513 898.657C288.513 898.657 285.976 897.577 280.899 895.416C275.825 893.255 270.638 889.372 265.337 883.765C259.757 877.997 256.77 870.024 256.375 859.844C256.044 853.388 256.278 845.963 257.076 837.573C257.435 829.297 258.211 821.261 259.408 813.464C260.324 805.508 261.155 798.978 261.899 793.872C262.643 788.767 263.013 786.215 263.013 786.215L202.506 832.4C202.506 832.4 200.801 833.086 197.392 834.458C193.703 835.668 188.835 836.025 182.792 835.523C176.469 834.86 169.136 831.78 160.792 826.278C136.32 810.09 131.555 796.863 146.496 786.593C149.508 784.625 155.01 780.947 163.002 775.557C170.832 770.444 179.788 764.681 189.866 758.27C199.506 751.977 209.062 745.82 218.539 739.803C227.735 733.626 235.345 728.571 241.368 724.636C247.392 720.703 250.404 718.736 250.404 718.736L307.382 616.34C307.382 616.34 308.108 615.094 309.561 612.606C310.572 610.234 312.745 607.79 316.08 605.269C319.253 603.026 323.802 601.938 329.729 602.003C335.493 602.346 342.987 605.15 352.212 610.418C364.513 617.443 372.63 624.29 376.564 630.96C380.219 637.471 381.615 643.061 380.753 647.73C379.731 652.676 378.654 656.117 377.523 658.051C376.878 659.159 374.596 663.385 370.68 670.735C366.483 677.923 361.561 686.357 355.911 696.033C350.262 705.711 344.753 715.47 339.382 725.307C333.735 734.985 329.193 743.082 325.761 749.601C322.048 755.961 320.192 759.141 320.192 759.141L324.637 878.917C324.637 878.917 324.75 880.641 324.974 884.087C325.199 887.533 324.624 891.075 323.245 894.711C321.426 898.466 317.872 901.044 312.58 902.447C307.289 903.849 299.266 902.586 288.513 898.657Z" fill="#007BC0"/>
<path d="M755.812 811.759C755.812 811.759 753.592 813.412 749.149 816.717C744.708 820.024 738.697 822.554 731.118 824.312C723.259 826.229 714.761 824.785 705.626 819.978C699.792 816.996 693.391 813.038 686.424 808.101C679.339 803.604 672.673 798.864 666.429 793.882C659.904 789.063 654.587 785.039 650.478 781.811C646.369 778.584 644.314 776.971 644.314 776.971L654.527 852.784C654.527 852.784 654.275 854.608 653.77 858.256C652.983 862.067 650.855 866.464 647.384 871.449C643.635 876.594 637.251 881.392 628.239 885.84C601.76 898.861 587.759 896.298 586.232 878.153C586.017 874.547 585.545 867.918 584.819 858.262C584.255 848.888 583.686 838.211 583.11 826.231C582.416 814.693 581.805 803.295 581.273 792.037C580.459 780.941 579.837 771.788 579.402 764.577C578.969 757.364 578.752 753.758 578.752 753.758L517.421 652.567C517.421 652.567 516.693 651.307 515.236 648.789C513.661 646.713 512.603 643.592 512.063 639.426C511.684 635.542 513.009 631.046 516.038 625.944C519.227 621.121 525.447 616.045 534.697 610.714C547.03 603.605 557.111 600.035 564.939 600C572.487 600.126 578.095 601.745 581.762 604.854C585.591 608.244 588.071 610.917 589.203 612.875C589.852 613.996 592.419 618.111 596.907 625.225C601.115 632.498 606.05 641.033 611.715 650.824C617.379 660.617 623.182 670.329 629.126 679.961C634.791 689.754 639.624 697.787 643.627 704.06C647.35 710.496 649.21 713.714 649.21 713.714L756.59 770.46C756.59 770.46 758.16 771.235 761.298 772.784C764.436 774.333 767.258 776.624 769.759 779.658C772.144 783.135 772.625 787.52 771.204 792.816C769.782 798.112 764.651 804.427 755.812 811.759Z" fill="#007BC0"/>
<path d="M609.487 4.37128C609.487 4.37128 612.024 5.4589 617.101 7.63393C622.175 9.80915 627.362 13.719 632.663 19.3636C638.243 25.1686 641.23 33.1948 641.625 43.4419C641.956 49.9421 641.722 57.4146 640.924 65.8629C640.565 74.1935 639.789 82.2812 638.592 90.1298C637.676 98.1384 636.847 104.712 636.103 109.851C635.359 114.993 634.987 117.561 634.987 117.561L695.494 71.0676C695.494 71.0676 697.199 70.3773 700.608 68.9985C704.297 67.7778 709.165 67.421 715.207 67.9263C721.531 68.5916 728.864 71.6943 737.208 77.2327C761.68 93.5257 766.445 106.843 751.504 117.181C748.492 119.162 742.99 122.864 734.998 128.291C727.168 133.438 718.212 139.238 708.134 145.691C698.496 152.027 688.938 158.223 679.461 164.28C670.265 170.499 662.655 175.588 656.632 179.547C650.608 183.508 647.596 185.487 647.596 185.487L590.618 288.565C590.618 288.565 589.892 289.817 588.439 292.322C587.428 294.709 585.255 297.172 581.92 299.709C578.747 301.967 574.198 303.063 568.273 302.997C562.507 302.652 555.013 299.829 545.788 294.526C533.487 287.454 525.37 280.562 521.436 273.848C517.781 267.293 516.385 261.666 517.247 256.965C518.269 251.987 519.346 248.524 520.477 246.574C521.122 245.462 523.404 241.206 527.32 233.808C531.517 226.571 536.439 218.082 542.089 208.34C547.738 198.598 553.247 188.777 558.618 178.874C564.265 169.132 568.807 160.981 572.239 154.417C575.952 148.016 577.808 144.815 577.808 144.815L573.363 24.2432C573.363 24.2432 573.25 22.5086 573.026 19.0394C572.801 15.57 573.376 12.0046 574.755 8.34319C576.574 4.56412 580.128 1.9687 585.42 0.557116C590.711 -0.854659 598.734 0.416725 609.487 4.37128Z" fill="#007BC0"/>
</svg>
