<?xml version="1.0" encoding="UTF-8"?>
<!DOCTYPE svg PUBLIC "-//W3C//DTD SVG 1.1//EN" "http://www.w3.org/Graphics/SVG/1.1/DTD/svg11.dtd">
<svg xmlns="http://www.w3.org/2000/svg" version="1.1" width="478px" height="228px" style="shape-rendering:geometricPrecision; text-rendering:geometricPrecision; image-rendering:optimizeQuality; fill-rule:evenodd; clip-rule:evenodd" xmlns:xlink="http://www.w3.org/1999/xlink">
<g><path style="opacity:1" fill="#191919" d="M 95.5,42.5 C 95.0269,41.0937 94.0269,40.427 92.5,40.5C 89.7128,30.7835 93.3795,26.9502 103.5,29C 108.986,34.0814 108.653,38.7481 102.5,43C 99.9615,43.7958 97.6282,43.6291 95.5,42.5 Z"/></g>
<g><path style="opacity:1" fill="#1b1b1b" d="M 176.5,28.5 C 187.81,27.2958 191.143,31.7958 186.5,42C 176.972,45.7941 172.472,42.6274 173,32.5C 174.376,31.2949 175.542,29.9616 176.5,28.5 Z"/></g>
<g><path style="opacity:1" fill="#0d0d0d" d="M 280.5,29.5 C 285.167,29.5 289.833,29.5 294.5,29.5C 294.5,52.5 294.5,75.5 294.5,98.5C 289.833,98.5 285.167,98.5 280.5,98.5C 280.5,75.5 280.5,52.5 280.5,29.5 Z"/></g>
<g><path style="opacity:1" fill="#0b0b0b" d="M 27.5,32.5 C 38.1719,32.3335 48.8385,32.5002 59.5,33C 75.3519,37.8233 83.0186,48.6566 82.5,65.5C 83.0391,82.7767 75.0391,93.61 58.5,98C 48.172,98.4998 37.8387,98.6665 27.5,98.5C 27.5,76.5 27.5,54.5 27.5,32.5 Z M 54.5,44.5 C 63.6247,48.3966 67.9581,55.3966 67.5,65.5C 66.868,70.2688 65.868,74.9354 64.5,79.5C 62.5,80.8333 60.8333,82.5 59.5,84.5C 57.8333,85.1667 56.1667,85.8333 54.5,86.5C 50.5,86.5 46.5,86.5 42.5,86.5C 42.5,72.5 42.5,58.5 42.5,44.5C 46.5,44.5 50.5,44.5 54.5,44.5 Z"/></g>
<g><path style="opacity:1" fill="#409264" d="M 365.5,33.5 C 363.208,33.2436 361.041,33.5769 359,34.5C 356.679,40.2907 355.512,46.2907 355.5,52.5C 353.595,49.6963 351.929,46.6963 350.5,43.5C 345.42,36.1376 338.42,33.4709 329.5,35.5C 332.437,33.3445 335.771,31.8445 339.5,31C 346.167,30.3333 352.833,30.3333 359.5,31C 361.723,31.5662 363.723,32.3995 365.5,33.5 Z"/></g>
<g><path style="opacity:1" fill="#0d0d0d" d="M 223.5,50.5 C 223.5,53.8333 223.5,57.1667 223.5,60.5C 220.167,60.5 216.833,60.5 213.5,60.5C 213.174,69.3494 213.507,78.0161 214.5,86.5C 216.97,88.6737 219.637,88.6737 222.5,86.5C 224.214,89.2988 225.547,92.2988 226.5,95.5C 224.997,97.4216 222.997,98.5883 220.5,99C 214.903,100.091 209.57,99.4242 204.5,97C 201.989,94.6745 200.656,91.8411 200.5,88.5C 200.5,79.1667 200.5,69.8333 200.5,60.5C 198.167,60.5 195.833,60.5 193.5,60.5C 193.5,57.1667 193.5,53.8333 193.5,50.5C 195.5,50.5 197.5,50.5 199.5,50.5C 200.23,46.9394 200.897,43.2728 201.5,39.5C 205.571,37.3654 209.905,36.0321 214.5,35.5C 214.5,40.5 214.5,45.5 214.5,50.5C 217.5,50.5 220.5,50.5 223.5,50.5 Z"/></g>
<g><path style="opacity:1" fill="#297a4e" d="M 365.5,33.5 C 369.505,34.4977 372.839,36.4977 375.5,39.5C 373.559,39.1307 371.725,38.464 370,37.5C 368.13,44.2762 365.963,50.9428 363.5,57.5C 364.602,58.1757 365.602,58.8423 366.5,59.5C 361.289,59.4045 357.622,57.0712 355.5,52.5C 355.512,46.2907 356.679,40.2907 359,34.5C 361.041,33.5769 363.208,33.2436 365.5,33.5 Z"/></g>
<g><path style="opacity:0.796" fill="#7f7f7f" d="M 92.5,40.5 C 94.0269,40.427 95.0269,41.0937 95.5,42.5C 93.9731,42.573 92.9731,41.9063 92.5,40.5 Z"/></g>
<g><path style="opacity:0.23" fill="#c0c0c0" d="M 201.5,39.5 C 200.897,43.2728 200.23,46.9394 199.5,50.5C 198.92,46.351 199.586,42.6843 201.5,39.5 Z"/></g>
<g><path style="opacity:1" fill="#3986b9" d="M 326.5,37.5 C 325.524,38.8149 324.524,40.1482 323.5,41.5C 327.667,44.5 331.833,47.5 336,50.5C 338.879,51.7924 341.713,51.7924 344.5,50.5C 344.34,52.153 343.674,53.4863 342.5,54.5C 340.801,54.3398 339.134,54.5065 337.5,55C 338.167,55.3333 338.833,55.6667 339.5,56C 334.564,57.6539 329.564,58.6539 324.5,59C 321.667,56.8333 318.833,54.6667 316,52.5C 315.616,50.8034 315.782,49.1368 316.5,47.5C 318.833,43.1667 322.167,39.8333 326.5,37.5 Z"/></g>
<g><path style="opacity:0.232" fill="#bebebe" d="M 54.5,44.5 C 50.5,44.5 46.5,44.5 42.5,44.5C 42.5,58.5 42.5,72.5 42.5,86.5C 46.5,86.5 50.5,86.5 54.5,86.5C 50.3656,87.4849 46.0323,87.8182 41.5,87.5C 41.5,72.8333 41.5,58.1667 41.5,43.5C 46.0323,43.1818 50.3656,43.5151 54.5,44.5 Z"/></g>
<g><path style="opacity:1" fill="#2276aa" d="M 329.5,35.5 C 338.42,33.4709 345.42,36.1376 350.5,43.5C 349.504,43.4142 348.671,43.7476 348,44.5C 347.059,46.7274 345.892,48.7274 344.5,50.5C 341.713,51.7924 338.879,51.7924 336,50.5C 331.833,47.5 327.667,44.5 323.5,41.5C 324.524,40.1482 325.524,38.8149 326.5,37.5C 326.973,36.0937 327.973,35.427 329.5,35.5 Z"/></g>
<g><path style="opacity:1" fill="#0f5f38" d="M 375.5,39.5 C 380.65,47.0338 380.817,54.7005 376,62.5C 375.583,61.244 374.75,60.5774 373.5,60.5C 371.05,60.702 368.717,60.3686 366.5,59.5C 365.602,58.8423 364.602,58.1757 363.5,57.5C 365.963,50.9428 368.13,44.2762 370,37.5C 371.725,38.464 373.559,39.1307 375.5,39.5 Z"/></g>
<g><path style="opacity:1" fill="#141414" d="M 164.5,49.5 C 164.5,52.8333 164.5,56.1667 164.5,59.5C 162.833,59.5 161.167,59.5 159.5,59.5C 159.5,63.1667 159.5,66.8333 159.5,70.5C 158.415,74.7538 155.748,77.5871 151.5,79C 145.003,80.7303 138.503,80.897 132,79.5C 128.514,82.4 129.014,84.5667 133.5,86C 140.833,86.3333 148.167,86.6667 155.5,87C 164.58,89.9907 167.747,96.1574 165,105.5C 161.512,111.338 156.346,114.838 149.5,116C 142.5,116.667 135.5,116.667 128.5,116C 125.896,115.61 123.562,114.776 121.5,113.5C 121.027,112.094 120.027,111.427 118.5,111.5C 114.513,108.212 113.68,104.212 116,99.5C 117.451,97.5359 119.284,96.2026 121.5,95.5C 123.933,95.2144 123.933,94.5477 121.5,93.5C 117.296,89.9387 116.463,85.6054 119,80.5C 120.5,79 122,77.5 123.5,76C 118.247,70.7345 117.081,64.5678 120,57.5C 127.281,49.9277 136.114,47.4277 146.5,50C 148.519,50.4497 150.352,51.283 152,52.5C 156.019,50.9538 160.185,49.9538 164.5,49.5 Z M 136.5,58.5 C 145.863,58.3934 148.529,62.56 144.5,71C 140.493,73.1665 136.826,72.6665 133.5,69.5C 131.641,64.9251 132.641,61.2584 136.5,58.5 Z M 130.5,97.5 C 136.842,97.3338 143.175,97.5005 149.5,98C 153.348,100.884 153.014,103.55 148.5,106C 141.682,108.366 135.182,107.866 129,104.5C 128.167,101.829 128.667,99.4957 130.5,97.5 Z"/></g>
<g><path style="opacity:1" fill="#131313" d="M 240.5,49.5 C 247.257,49.1226 253.924,49.6226 260.5,51C 264.593,53.0068 267.427,56.1734 269,60.5C 269.333,71.5 269.667,82.5 270,93.5C 270.273,95.1012 270.773,96.6012 271.5,98C 266.511,98.4993 261.511,98.6659 256.5,98.5C 256.657,97.1266 256.49,95.7932 256,94.5C 250,99.2332 243.166,100.733 235.5,99C 227.313,94.7811 224.813,88.2811 228,79.5C 231.866,73.6459 237.366,70.4792 244.5,70C 248.152,69.5014 251.818,69.3347 255.5,69.5C 255.365,61.5786 251.365,58.7453 243.5,61C 240.18,61.743 237.013,62.9097 234,64.5C 231.29,62.2881 229.123,59.6214 227.5,56.5C 231.481,53.3454 235.814,51.0121 240.5,49.5 Z M 250.5,78.5 C 252.167,78.5 253.833,78.5 255.5,78.5C 255.5,79.8333 255.5,81.1667 255.5,82.5C 254.447,86.8013 251.614,89.1346 247,89.5C 240.739,87.8757 239.905,84.709 244.5,80C 246.518,79.4954 248.518,78.9954 250.5,78.5 Z"/></g>
<g><path style="opacity:1" fill="#0d0d0d" d="M 92.5,50.5 C 97.1667,50.5 101.833,50.5 106.5,50.5C 106.5,66.5 106.5,82.5 106.5,98.5C 101.833,98.5 97.1667,98.5 92.5,98.5C 92.5,82.5 92.5,66.5 92.5,50.5 Z"/></g>
<g><path style="opacity:1" fill="#0d0d0d" d="M 173.5,50.5 C 178.167,50.5 182.833,50.5 187.5,50.5C 187.5,66.5 187.5,82.5 187.5,98.5C 182.833,98.5 178.167,98.5 173.5,98.5C 173.5,82.5 173.5,66.5 173.5,50.5 Z"/></g>
<g><path style="opacity:1" fill="#629fce" d="M 316.5,47.5 C 315.782,49.1368 315.616,50.8034 316,52.5C 318.833,54.6667 321.667,56.8333 324.5,59C 329.564,58.6539 334.564,57.6539 339.5,56C 338.833,55.6667 338.167,55.3333 337.5,55C 339.134,54.5065 340.801,54.3398 342.5,54.5C 341.106,56.7082 339.106,58.2082 336.5,59C 332.853,59.7745 329.186,60.4412 325.5,61C 324.663,62.0113 324.33,63.1779 324.5,64.5C 323.71,63.3915 323.21,62.0581 323,60.5C 317.192,63.1385 313.358,67.4718 311.5,73.5C 310.539,75.2646 310.205,77.2646 310.5,79.5C 308.443,73.3053 308.276,66.972 310,60.5C 311.143,55.5469 313.31,51.2136 316.5,47.5 Z"/></g>
<g><path style="opacity:0.232" fill="#aeaeae" d="M 164.5,49.5 C 165.482,52.9619 165.815,56.6286 165.5,60.5C 163.833,60.5 162.167,60.5 160.5,60.5C 160.813,64.0419 160.479,67.3752 159.5,70.5C 159.5,66.8333 159.5,63.1667 159.5,59.5C 161.167,59.5 162.833,59.5 164.5,59.5C 164.5,56.1667 164.5,52.8333 164.5,49.5 Z"/></g>
<g><path style="opacity:0.998" fill="#45928c" d="M 375.5,39.5 C 387.864,50.2567 392.197,63.59 388.5,79.5C 388.777,74.7668 388.443,70.1001 387.5,65.5C 383.878,64.3414 380.211,64.1747 376.5,65C 373.935,67.0795 371.268,68.9128 368.5,70.5C 370.127,68.3702 371.96,66.3702 374,64.5C 374.579,63.0715 374.412,61.7382 373.5,60.5C 374.75,60.5774 375.583,61.244 376,62.5C 380.817,54.7005 380.65,47.0338 375.5,39.5 Z"/></g>
<g><path style="opacity:0.229" fill="#b8b8b8" d="M 193.5,60.5 C 195.833,60.5 198.167,60.5 200.5,60.5C 200.5,69.8333 200.5,79.1667 200.5,88.5C 199.507,79.6822 199.173,70.6822 199.5,61.5C 197.265,61.7947 195.265,61.4614 193.5,60.5 Z"/></g>
<g><path style="opacity:0.23" fill="#b4b4b4" d="M 223.5,50.5 C 224.482,53.9619 224.815,57.6286 224.5,61.5C 221.167,61.5 217.833,61.5 214.5,61.5C 214.5,69.8333 214.5,78.1667 214.5,86.5C 213.507,78.0161 213.174,69.3494 213.5,60.5C 216.833,60.5 220.167,60.5 223.5,60.5C 223.5,57.1667 223.5,53.8333 223.5,50.5 Z"/></g>
<g><path style="opacity:1" fill="#632960" d="M 324.5,64.5 C 325.275,66.6921 326.109,68.6921 327,70.5C 322.564,73.3026 318.397,76.4693 314.5,80C 313.551,80.6172 312.718,80.4506 312,79.5C 311.505,77.5273 311.338,75.5273 311.5,73.5C 313.358,67.4718 317.192,63.1385 323,60.5C 323.21,62.0581 323.71,63.3915 324.5,64.5 Z"/></g>
<g><path style="opacity:1" fill="#753571" d="M 324.5,64.5 C 328.628,67.2901 331.628,70.9568 333.5,75.5C 333.754,79.8193 332.754,83.8193 330.5,87.5C 327.266,89.9891 323.933,92.3224 320.5,94.5C 318.643,93.7335 316.976,92.7335 315.5,91.5C 312.763,88.0169 311.097,84.0169 310.5,79.5C 310.205,77.2646 310.539,75.2646 311.5,73.5C 311.338,75.5273 311.505,77.5273 312,79.5C 312.718,80.4506 313.551,80.6172 314.5,80C 318.397,76.4693 322.564,73.3026 327,70.5C 326.109,68.6921 325.275,66.6921 324.5,64.5 Z"/></g>
<g><path style="opacity:1" fill="#2b7672" d="M 388.5,79.5 C 388.128,83.2971 386.794,86.6305 384.5,89.5C 384.5,87.8333 384.5,86.1667 384.5,84.5C 378.794,84.1712 373.128,84.5046 367.5,85.5C 366.95,87.6568 366.283,89.6568 365.5,91.5C 364.852,86.1717 364.685,80.8383 365,75.5C 365.223,73.1192 366.39,71.4525 368.5,70.5C 371.268,68.9128 373.935,67.0795 376.5,65C 380.211,64.1747 383.878,64.3414 387.5,65.5C 388.443,70.1001 388.777,74.7668 388.5,79.5 Z"/></g>
<g><path style="opacity:0.46" fill="#7d7d7d" d="M 250.5,78.5 C 252.265,77.5386 254.265,77.2053 256.5,77.5C 256.784,79.4147 256.451,81.0813 255.5,82.5C 255.5,81.1667 255.5,79.8333 255.5,78.5C 253.833,78.5 252.167,78.5 250.5,78.5 Z"/></g>
<g><path style="opacity:0.8" fill="#686868" d="M 64.5,79.5 C 63.8333,82.1667 62.1667,83.8333 59.5,84.5C 60.8333,82.5 62.5,80.8333 64.5,79.5 Z"/></g>
<g><path style="opacity:1" fill="#904d8a" d="M 333.5,75.5 C 334.782,78.7307 334.782,82.0641 333.5,85.5C 330.907,95.4915 334.24,102.992 343.5,108C 342.552,108.483 341.552,108.649 340.5,108.5C 338.485,107.076 336.152,106.41 333.5,106.5C 325.693,103.694 319.693,98.6945 315.5,91.5C 316.976,92.7335 318.643,93.7335 320.5,94.5C 323.933,92.3224 327.266,89.9891 330.5,87.5C 332.754,83.8193 333.754,79.8193 333.5,75.5 Z"/></g>
<g><path style="opacity:1" fill="#53717d" d="M 333.5,85.5 C 333.5,87.5 333.5,89.5 333.5,91.5C 338.825,89.8394 344.158,88.1728 349.5,86.5C 354.842,88.1728 360.175,89.8394 365.5,91.5C 365.389,92.1174 365.056,92.6174 364.5,93C 366.199,93.9581 368.033,94.4581 370,94.5C 375.195,93.7135 380.028,92.0468 384.5,89.5C 374.347,106.242 359.68,112.576 340.5,108.5C 341.552,108.649 342.552,108.483 343.5,108C 334.24,102.992 330.907,95.4915 333.5,85.5 Z"/></g>
<g><path style="opacity:1" fill="#105956" d="M 384.5,89.5 C 380.028,92.0468 375.195,93.7135 370,94.5C 368.033,94.4581 366.199,93.9581 364.5,93C 365.056,92.6174 365.389,92.1174 365.5,91.5C 366.283,89.6568 366.95,87.6568 367.5,85.5C 373.128,84.5046 378.794,84.1712 384.5,84.5C 384.5,86.1667 384.5,87.8333 384.5,89.5 Z"/></g>
<g><path style="opacity:0.055" fill="#cbcbcb" d="M 121.5,93.5 C 123.933,94.5477 123.933,95.2144 121.5,95.5C 121.5,94.8333 121.5,94.1667 121.5,93.5 Z"/></g>
<g><path style="opacity:1" fill="#0d0d0d" d="M 281.5,103.5 C 286.167,103.5 290.833,103.5 295.5,103.5C 295.5,126.5 295.5,149.5 295.5,172.5C 290.833,172.5 286.167,172.5 281.5,172.5C 281.5,149.5 281.5,126.5 281.5,103.5 Z"/></g>
<g><path style="opacity:1" fill="#040404" d="M 189.5,172.5 C 189.5,154.167 189.5,135.833 189.5,117.5C 183.167,117.5 176.833,117.5 170.5,117.5C 170.5,113.833 170.5,110.167 170.5,106.5C 187.833,106.5 205.167,106.5 222.5,106.5C 222.5,110.5 222.5,114.5 222.5,118.5C 216.167,118.5 209.833,118.5 203.5,118.5C 203.5,136.5 203.5,154.5 203.5,172.5C 198.833,172.5 194.167,172.5 189.5,172.5 Z"/></g>
<g><path style="opacity:0.929" fill="#c395be" d="M 333.5,106.5 C 336.152,106.41 338.485,107.076 340.5,108.5C 337.848,108.59 335.515,107.924 333.5,106.5 Z"/></g>
<g><path style="opacity:1" fill="#0e0e0e" d="M 425.5,110.5 C 427.138,114.913 428.138,119.579 428.5,124.5C 431.5,124.5 434.5,124.5 437.5,124.5C 437.5,127.833 437.5,131.167 437.5,134.5C 434.287,134.19 431.287,134.523 428.5,135.5C 428.334,143.507 428.5,151.507 429,159.5C 431.176,163.107 433.843,163.441 437,160.5C 443.253,169.949 440.587,174.282 429,173.5C 423.422,174.211 419.088,172.211 416,167.5C 414.571,156.912 414.071,146.245 414.5,135.5C 412.735,134.539 410.735,134.205 408.5,134.5C 408.5,131.167 408.5,127.833 408.5,124.5C 410.5,124.5 412.5,124.5 414.5,124.5C 414.177,120.774 414.511,117.107 415.5,113.5C 418.727,112.091 422.06,111.091 425.5,110.5 Z"/></g>
<g><path style="opacity:0.741" fill="#4e4e4e" d="M 425.5,110.5 C 426.209,109.596 427.209,109.263 428.5,109.5C 428.5,114.5 428.5,119.5 428.5,124.5C 428.138,119.579 427.138,114.913 425.5,110.5 Z"/></g>
<g><path style="opacity:0.459" fill="#8c8c8c" d="M 118.5,111.5 C 120.027,111.427 121.027,112.094 121.5,113.5C 119.973,113.573 118.973,112.906 118.5,111.5 Z"/></g>
<g><path style="opacity:0.231" fill="#c2c2c2" d="M 170.5,117.5 C 176.833,117.5 183.167,117.5 189.5,117.5C 189.5,135.833 189.5,154.167 189.5,172.5C 188.503,154.674 188.17,136.674 188.5,118.5C 182.31,118.823 176.31,118.49 170.5,117.5 Z"/></g>
<g><path style="opacity:1" fill="#151515" d="M 257.5,170.5 C 257.657,169.127 257.49,167.793 257,166.5C 256.283,167.044 255.783,167.711 255.5,168.5C 254.106,170.708 252.106,172.208 249.5,173C 233.819,176.305 226.652,170.138 228,154.5C 228.608,152.934 229.442,151.6 230.5,150.5C 232.027,150.573 233.027,149.906 233.5,148.5C 236.68,146.153 240.347,144.653 244.5,144C 248.152,143.501 251.818,143.335 255.5,143.5C 255.656,135.181 251.656,132.348 243.5,135C 240.61,136.029 237.776,137.195 235,138.5C 232.566,136.993 230.566,134.993 229,132.5C 228.316,131.216 228.483,130.049 229.5,129C 238.478,123.836 248.145,122.169 258.5,124C 264.74,125.908 268.573,130.075 270,136.5C 270.228,148.532 270.728,160.532 271.5,172.5C 266.381,173.103 261.715,172.436 257.5,170.5 Z M 249.5,152.5 C 251.833,152.5 254.167,152.5 256.5,152.5C 256.149,161.369 251.816,164.536 243.5,162C 241.006,159.756 241.006,157.423 243.5,155C 245.611,154.155 247.611,153.322 249.5,152.5 Z"/></g>
<g><path style="opacity:1" fill="#131313" d="M 346.5,161.5 C 346.833,162.167 347.167,162.833 347.5,163.5C 345.737,167.099 343.07,169.932 339.5,172C 314.997,177.183 303.497,167.35 305,142.5C 308.823,127.044 318.656,120.878 334.5,124C 341.401,126.568 345.901,131.402 348,138.5C 348.735,142.813 349.235,147.147 349.5,151.5C 339.145,151.168 328.812,151.501 318.5,152.5C 320.742,162.288 326.409,165.121 335.5,161C 336.701,160.097 337.535,158.931 338,157.5C 340.905,158.703 343.738,160.036 346.5,161.5 Z M 334.5,139.5 C 334.5,140.5 334.5,141.5 334.5,142.5C 329.056,143.108 324.056,142.442 319.5,140.5C 324.213,131.928 329.213,131.595 334.5,139.5 Z"/></g>
<g><path style="opacity:1" fill="#0f0f0f" d="M 373.5,128.5 C 375.027,128.573 376.027,127.906 376.5,126.5C 377.347,125.034 378.68,124.2 380.5,124C 391.574,120.893 398.741,124.726 402,135.5C 402.5,147.829 402.667,160.162 402.5,172.5C 397.833,172.5 393.167,172.5 388.5,172.5C 388.912,160.771 388.412,149.104 387,137.5C 381.161,132.859 376.495,133.859 373,140.5C 372.5,151.161 372.333,161.828 372.5,172.5C 367.833,172.5 363.167,172.5 358.5,172.5C 358.5,156.5 358.5,140.5 358.5,124.5C 362.833,124.5 367.167,124.5 371.5,124.5C 371.338,126.527 371.505,128.527 372,130.5C 372.278,129.584 372.778,128.918 373.5,128.5 Z"/></g>
<g><path style="opacity:0.466" fill="#8c8c8c" d="M 408.5,124.5 C 408.5,127.833 408.5,131.167 408.5,134.5C 410.735,134.205 412.735,134.539 414.5,135.5C 412.167,135.5 409.833,135.5 407.5,135.5C 407.185,131.629 407.518,127.962 408.5,124.5 Z"/></g>
<g><path style="opacity:0.804" fill="#707070" d="M 376.5,126.5 C 376.027,127.906 375.027,128.573 373.5,128.5C 373.973,127.094 374.973,126.427 376.5,126.5 Z"/></g>
<g><path style="opacity:0.469" fill="#737373" d="M 437.5,124.5 C 438.482,127.962 438.815,131.629 438.5,135.5C 435.167,135.5 431.833,135.5 428.5,135.5C 431.287,134.523 434.287,134.19 437.5,134.5C 437.5,131.167 437.5,127.833 437.5,124.5 Z"/></g>
<g><path style="opacity:0.232" fill="#bababa" d="M 334.5,139.5 C 335.434,140.568 335.768,141.901 335.5,143.5C 329.833,143.5 324.167,143.5 318.5,143.5C 318.263,142.209 318.596,141.209 319.5,140.5C 324.056,142.442 329.056,143.108 334.5,142.5C 334.5,141.5 334.5,140.5 334.5,139.5 Z"/></g>
<g><path style="opacity:0.796" fill="#747474" d="M 233.5,148.5 C 233.027,149.906 232.027,150.573 230.5,150.5C 230.973,149.094 231.973,148.427 233.5,148.5 Z"/></g>
<g><path style="opacity:0.063" fill="#c8c8c8" d="M 346.5,161.5 C 348.424,161.711 348.757,162.377 347.5,163.5C 347.167,162.833 346.833,162.167 346.5,161.5 Z"/></g>
<g><path style="opacity:0.071" fill="#b9b9b9" d="M 257.5,170.5 C 256.833,169.833 256.167,169.167 255.5,168.5C 255.783,167.711 256.283,167.044 257,166.5C 257.49,167.793 257.657,169.127 257.5,170.5 Z"/></g>
<g><path style="opacity:0.224" fill="#c2c2c2" d="M 361.5,181.5 C 361.5,185.5 361.5,189.5 361.5,193.5C 360.5,193.167 359.833,192.5 359.5,191.5C 360.167,188.167 360.833,184.833 361.5,181.5 Z"/></g>
<g><path style="opacity:1" fill="#2c2c2c" d="M 361.5,181.5 C 362.833,181.5 364.167,181.5 365.5,181.5C 365.5,191.167 365.5,200.833 365.5,210.5C 364.167,210.5 362.833,210.5 361.5,210.5C 361.5,209.5 361.5,208.5 361.5,207.5C 360.89,206.609 360.557,205.609 360.5,204.5C 360.5,201.833 360.5,199.167 360.5,196.5C 360.557,195.391 360.89,194.391 361.5,193.5C 361.5,189.5 361.5,185.5 361.5,181.5 Z"/></g>
<g><path style="opacity:1" fill="#2d2d2d" d="M 289.5,182.5 C 291.5,182.5 293.5,182.5 295.5,182.5C 298.291,191.539 301.291,200.539 304.5,209.5C 302.955,210.452 301.288,210.785 299.5,210.5C 300.022,204.859 297.522,202.526 292,203.5C 290.167,203.833 288.333,204.167 286.5,204.5C 286.241,208.413 284.241,210.413 280.5,210.5C 283.5,201.167 286.5,191.833 289.5,182.5 Z M 291.5,188.5 C 292.167,188.833 292.833,189.167 293.5,189.5C 294.091,192.94 295.091,196.273 296.5,199.5C 293.554,200.655 290.554,200.821 287.5,200C 289.135,196.261 290.469,192.427 291.5,188.5 Z"/></g>
<g><path style="opacity:0.075" fill="#bdbdbd" d="M 293.5,189.5 C 292.833,189.167 292.167,188.833 291.5,188.5C 292.301,186.207 292.968,186.54 293.5,189.5 Z"/></g>
<g><path style="opacity:1" fill="#313131" d="M 311.5,190.5 C 314.187,190.336 316.854,190.503 319.5,191C 323.799,193.227 323.966,195.06 320,196.5C 316.501,192.418 313.501,192.751 311,197.5C 309.978,206.639 313.311,208.972 321,204.5C 321.772,204.645 322.439,204.978 323,205.5C 323.163,207.387 322.329,208.887 320.5,210C 308.829,211.993 304.329,207.16 307,195.5C 308.025,193.313 309.525,191.646 311.5,190.5 Z"/></g>
<g><path style="opacity:1" fill="#303030" d="M 329.5,190.5 C 332.85,190.335 336.183,190.502 339.5,191C 340.333,191.833 341.167,192.667 342,193.5C 342.048,199.387 342.882,205.053 344.5,210.5C 342.234,210.859 340.401,210.192 339,208.5C 334.8,211.133 330.633,211.133 326.5,208.5C 324.813,205.097 325.48,202.264 328.5,200C 331.688,198.684 335.022,198.184 338.5,198.5C 338.684,195.679 337.351,194.012 334.5,193.5C 332.265,194.752 329.931,195.252 327.5,195C 327.043,194.586 326.709,194.086 326.5,193.5C 327.34,192.265 328.34,191.265 329.5,190.5 Z M 333.5,201.5 C 335.167,201.5 336.833,201.5 338.5,201.5C 337.14,207.186 334.14,208.352 329.5,205C 330.731,203.595 332.064,202.429 333.5,201.5 Z"/></g>
<g><path style="opacity:1" fill="#2e2e2e" d="M 359.5,191.5 C 359.833,192.5 360.5,193.167 361.5,193.5C 360.89,194.391 360.557,195.391 360.5,196.5C 355.532,192.473 352.532,193.806 351.5,200.5C 352.532,207.194 355.532,208.527 360.5,204.5C 360.557,205.609 360.89,206.609 361.5,207.5C 360.5,207.833 359.833,208.5 359.5,209.5C 351.425,211.952 347.425,208.786 347.5,200C 347.868,191.78 351.868,188.946 359.5,191.5 Z"/></g>
<g><path style="opacity:1" fill="#2b2b2b" d="M 374.5,190.5 C 383.455,188.792 387.789,192.459 387.5,201.5C 382.833,201.5 378.167,201.5 373.5,201.5C 373.775,205.109 375.775,207.109 379.5,207.5C 381.295,206.735 383.128,206.068 385,205.5C 388.299,207.127 388.132,208.627 384.5,210C 370.73,211.905 366.23,206.405 371,193.5C 372.145,192.364 373.312,191.364 374.5,190.5 Z M 377.5,193.5 C 380.168,193.834 382.168,195.167 383.5,197.5C 380.216,198.657 376.882,198.824 373.5,198C 374.357,195.981 375.691,194.481 377.5,193.5 Z"/></g>
<g><path style="opacity:1" fill="#262626" d="M 391.5,190.5 C 393.451,190.227 394.951,190.893 396,192.5C 399.465,189.872 402.965,189.872 406.5,192.5C 411.039,189.51 415.206,189.844 419,193.5C 419.499,199.157 419.666,204.824 419.5,210.5C 418.167,210.5 416.833,210.5 415.5,210.5C 415.666,205.821 415.499,201.155 415,196.5C 412.454,192.884 410.121,193.218 408,197.5C 407.501,201.821 407.334,206.154 407.5,210.5C 406.167,210.5 404.833,210.5 403.5,210.5C 403.666,205.489 403.499,200.489 403,195.5C 400.047,193.113 397.714,193.779 396,197.5C 395.501,201.821 395.334,206.154 395.5,210.5C 394.167,210.5 392.833,210.5 391.5,210.5C 391.5,203.833 391.5,197.167 391.5,190.5 Z"/></g>
<g><path style="opacity:1" fill="#333333" d="M 430.5,202.5 C 431.032,205.46 431.699,205.793 432.5,203.5C 433.356,199.43 434.523,195.43 436,191.5C 437.356,190.62 438.856,190.286 440.5,190.5C 438.033,199.4 434.866,208.066 431,216.5C 428.959,217.423 426.792,217.756 424.5,217.5C 423.89,216.609 423.557,215.609 423.5,214.5C 424.648,213.836 425.981,213.669 427.5,214C 428.43,212.806 429.097,211.473 429.5,210C 426.663,203.655 424.33,197.155 422.5,190.5C 424.144,190.286 425.644,190.62 427,191.5C 428.674,195.021 429.84,198.687 430.5,202.5 Z"/></g>
<g><path style="opacity:0.455" fill="#989898" d="M 430.5,202.5 C 431.167,202.833 431.833,203.167 432.5,203.5C 431.699,205.793 431.032,205.46 430.5,202.5 Z"/></g>
<g><path style="opacity:0.233" fill="#bfbfbf" d="M 361.5,207.5 C 361.5,208.5 361.5,209.5 361.5,210.5C 360.833,210.167 360.167,209.833 359.5,209.5C 359.833,208.5 360.5,207.833 361.5,207.5 Z"/></g>
<g><path style="opacity:0.459" fill="#989898" d="M 423.5,214.5 C 423.557,215.609 423.89,216.609 424.5,217.5C 422.448,216.947 422.115,215.947 423.5,214.5 Z"/></g>
</svg>
