<?xml version="1.0" standalone="no"?>
<!DOCTYPE svg PUBLIC "-//W3C//DTD SVG 20010904//EN"
 "http://www.w3.org/TR/2001/REC-SVG-20010904/DTD/svg10.dtd">
<svg version="1.0" xmlns="http://www.w3.org/2000/svg"
 width="478.000000pt" height="228.000000pt" viewBox="0 0 478.000000 228.000000"
 preserveAspectRatio="xMidYMid meet">

<g transform="translate(0.000000,228.000000) scale(0.100000,-0.100000)"
fill="#000000" stroke="none">
<path d="M962 1980 c-52 -22 -53 -98 -1 -125 79 -41 152 60 83 114 -29 23 -46
25 -82 11z"/>
<path d="M1766 1969 c-69 -54 4 -155 83 -114 54 27 51 104 -5 125 -36 14 -48
13 -78 -11z"/>
<path d="M2820 1635 l0 -345 65 0 65 0 0 345 0 345 -65 0 -65 0 0 -345z"/>
<path d="M3455 1961 c-16 -4 -47 -15 -67 -24 -21 -9 -45 -17 -55 -17 -25 0
-74 -31 -115 -74 -57 -58 -55 -69 16 -114 99 -64 156 -50 217 55 19 32 41 58
49 58 8 0 27 -22 42 -50 40 -74 76 -102 143 -110 92 -12 104 -46 35 -95 -51
-36 -62 -70 -54 -161 6 -76 6 -79 -15 -79 -12 0 -44 11 -71 25 -64 33 -98 32
-171 -5 -33 -17 -65 -28 -71 -24 -7 4 -8 33 -4 85 8 89 0 113 -58 168 -20 19
-36 43 -36 53 0 23 -5 23 -46 -3 -47 -29 -77 -83 -78 -138 -2 -98 96 -231 211
-288 54 -26 67 -28 173 -28 110 0 118 1 175 32 97 51 180 149 205 241 15 57
14 163 -1 210 -15 46 -48 94 -59 87 -5 -3 -14 12 -20 34 -12 46 -72 104 -136
132 -38 16 -157 42 -174 38 -3 -1 -18 -5 -35 -8z"/>
<path d="M280 1620 l0 -332 158 4 c186 5 233 20 306 98 54 58 76 123 76 230 0
150 -47 238 -158 292 -65 32 -69 33 -224 37 l-158 3 0 -332z m293 206 c69 -28
107 -102 107 -206 0 -72 -15 -122 -47 -161 -36 -42 -80 -59 -153 -59 l-60 0 0
220 0 220 60 0 c33 0 75 -6 93 -14z"/>
<path d="M2075 1894 l-60 -21 -3 -52 c-3 -51 -3 -51 -38 -51 l-34 0 0 -50 0
-50 35 0 35 0 0 -140 c0 -153 10 -197 52 -224 39 -26 103 -31 153 -11 50 18
51 21 31 69 -12 29 -17 32 -45 28 -55 -8 -61 6 -61 149 l0 129 50 0 50 0 0 50
0 50 -50 0 -49 0 -3 73 -3 72 -60 -21z"/>
<path d="M1320 1768 c-115 -32 -162 -146 -94 -227 l25 -30 -32 -29 c-44 -39
-45 -89 -5 -131 27 -28 27 -29 7 -36 -29 -9 -61 -53 -61 -85 0 -112 251 -159
417 -79 82 39 106 148 47 210 -34 35 -91 49 -207 49 -100 0 -122 9 -115 47 3
16 15 18 93 18 145 0 210 48 208 153 0 48 1 52 23 52 22 0 24 4 24 49 l0 49
-57 -15 c-51 -13 -63 -13 -113 1 -63 18 -108 19 -160 4z m130 -88 c24 -13 35
-63 19 -92 -16 -32 -28 -38 -71 -38 -68 0 -104 74 -58 120 22 22 78 27 110 10z
m68 -385 c6 -3 12 -18 12 -34 0 -43 -39 -61 -132 -61 -81 0 -118 16 -118 52 0
47 23 56 128 51 53 -3 103 -6 110 -8z"/>
<path d="M2435 1773 c-45 -10 -111 -34 -128 -47 -18 -14 -17 -16 8 -55 l27
-40 41 21 c49 24 136 30 160 9 10 -7 17 -28 17 -45 l0 -32 -80 -12 c-133 -19
-190 -59 -198 -140 -6 -68 17 -108 75 -134 57 -25 120 -19 175 17 l38 25 6
-25 c6 -23 10 -25 68 -25 l61 0 -3 167 c-3 192 -11 230 -52 271 -41 42 -139
62 -215 45z m131 -288 c18 -47 -30 -105 -87 -105 -99 0 -87 94 14 111 65 10
67 10 73 -6z"/>
<path d="M930 1530 l0 -240 65 0 65 0 0 240 0 240 -65 0 -65 0 0 -240z"/>
<path d="M1750 1530 l0 -240 65 0 65 0 0 240 0 240 -65 0 -65 0 0 -240z"/>
<path d="M2820 895 l0 -345 65 0 65 0 0 345 0 345 -65 0 -65 0 0 -345z"/>
<path d="M1710 1155 l0 -55 95 0 95 0 0 -275 0 -275 70 0 70 0 0 275 0 275 95
0 95 0 0 55 0 55 -260 0 -260 0 0 -55z"/>
<path d="M4203 1149 l-53 -20 0 -50 c0 -48 -1 -49 -30 -49 -29 0 -30 -1 -30
-50 0 -49 1 -50 29 -50 l29 0 4 -149 c3 -167 11 -188 79 -224 39 -21 117 -17
155 7 22 15 22 17 7 54 -14 36 -17 39 -56 38 l-42 -1 -3 138 -3 137 51 0 50 0
0 50 0 50 -50 0 -50 0 0 70 c0 81 -2 82 -87 49z"/>
<path d="M2417 1029 c-51 -12 -117 -47 -117 -62 1 -6 11 -25 24 -40 l23 -28
64 21 c93 32 159 11 159 -50 0 -26 -3 -28 -62 -34 -133 -14 -209 -59 -222
-131 -25 -132 128 -212 248 -130 45 30 44 30 48 3 3 -21 9 -23 63 -26 l61 -3
-3 168 c-2 92 -6 182 -9 200 -14 93 -141 144 -277 112z m153 -308 c0 -50 -35
-81 -89 -81 -44 0 -61 14 -61 51 0 34 17 48 71 58 78 16 79 15 79 -28z"/>
<path d="M3218 1030 c-83 -25 -140 -93 -158 -191 -21 -109 29 -227 113 -268
112 -54 251 -26 298 60 9 17 4 22 -38 40 -31 13 -49 16 -51 9 -11 -32 -103
-51 -143 -30 -22 12 -49 61 -49 90 0 19 5 20 151 20 l152 0 -5 63 c-13 156
-133 248 -270 207z m111 -107 c11 -10 24 -33 27 -50 l7 -33 -88 0 -87 0 7 28
c16 65 87 94 134 55z"/>
<path d="M3805 1025 c-22 -8 -50 -27 -62 -42 l-23 -28 0 38 0 37 -65 0 -65 0
0 -240 0 -240 65 0 65 0 0 149 c0 173 8 207 56 227 46 19 61 18 89 -11 25 -24
25 -27 25 -195 l0 -170 65 0 65 0 0 188 c0 205 -7 235 -61 275 -35 25 -104 31
-154 12z"/>
<path d="M3620 399 l0 -60 -22 15 c-31 22 -52 20 -85 -8 -24 -21 -28 -32 -28
-76 0 -44 4 -55 28 -76 33 -28 54 -30 85 -8 20 14 22 14 22 0 0 -9 7 -16 15
-16 13 0 15 23 15 145 0 122 -2 145 -15 145 -12 0 -15 -13 -15 -61z m-18 -76
c23 -20 24 -80 1 -105 -18 -21 -53 -24 -71 -6 -16 16 -16 100 0 116 17 17 48
15 70 -5z"/>
<path d="M2897 408 c-8 -24 -31 -87 -51 -141 -30 -83 -33 -98 -19 -95 10 2 22
18 27 36 l9 33 66 -3 c64 -3 65 -4 75 -35 5 -18 15 -33 22 -33 8 0 14 3 14 8
0 4 -21 67 -46 140 -53 149 -70 166 -97 90z m56 -58 c8 -25 18 -53 22 -62 6
-16 1 -18 -44 -18 -28 0 -51 4 -51 8 0 23 43 132 50 125 4 -4 14 -28 23 -53z"/>
<path d="M3120 357 c-34 -17 -52 -55 -46 -101 6 -48 31 -75 77 -82 41 -7 93
26 73 46 -8 8 -14 7 -24 -5 -15 -18 -61 -20 -78 -3 -16 16 -16 100 0 116 17
17 48 15 68 -3 15 -14 19 -14 29 -1 10 12 7 18 -18 30 -36 19 -48 20 -81 3z"/>
<path d="M3303 360 c-13 -5 -23 -13 -23 -18 0 -16 13 -22 26 -11 7 6 28 9 46
7 25 -2 34 -8 36 -24 3 -18 -3 -22 -35 -27 -77 -13 -109 -67 -61 -101 27 -19
45 -20 78 -3 22 11 28 11 38 0 17 -18 42 -17 42 2 0 8 -4 15 -9 15 -5 0 -11
30 -13 66 -3 55 -8 70 -27 85 -25 20 -62 23 -98 9z m87 -113 c0 -31 -18 -47
-52 -47 -51 0 -46 53 5 63 43 8 47 7 47 -16z"/>
<path d="M3750 357 c-52 -26 -66 -107 -27 -152 26 -30 79 -41 120 -26 28 11
33 40 6 32 -8 -2 -30 -6 -50 -9 -30 -3 -40 1 -53 19 -9 13 -16 27 -16 31 0 5
34 8 76 8 l77 0 -7 33 c-7 37 -48 77 -79 77 -12 0 -33 -6 -47 -13z m78 -29
c26 -26 13 -38 -38 -38 -34 0 -50 4 -50 13 0 21 22 37 50 37 14 0 31 -5 38
-12z"/>
<path d="M3930 270 c0 -82 3 -100 15 -100 12 0 15 15 15 74 0 80 11 100 52 94
22 -3 23 -8 26 -85 3 -75 5 -83 22 -83 18 0 20 7 20 74 0 80 11 100 52 94 22
-3 23 -8 26 -85 3 -75 5 -83 22 -83 18 0 20 7 20 64 0 80 -12 113 -46 128 -21
10 -31 9 -55 -4 -27 -16 -31 -16 -58 -1 -27 16 -30 16 -55 0 -22 -15 -26 -15
-26 -2 0 8 -7 15 -15 15 -12 0 -15 -18 -15 -100z"/>
<path d="M4250 320 c11 -27 28 -71 39 -97 23 -59 14 -93 -24 -93 -28 0 -34
-17 -9 -27 32 -12 60 14 84 79 12 34 33 91 46 126 21 55 22 63 7 60 -10 -2
-27 -31 -44 -78 -30 -83 -25 -86 -65 28 -13 36 -24 52 -36 52 -17 0 -16 -3 2
-50z"/>
</g>
</svg>
