<svg width="7047" height="1500" viewBox="0 0 7047 1500" fill="none" xmlns="http://www.w3.org/2000/svg">
<mask id="mask0_1003_60" style="mask-type:luminance" maskUnits="userSpaceOnUse" x="3201" y="635" width="254" height="229">
<path d="M3380.79 644.901C3385.87 635.923 3397.42 632.626 3405.62 638.939C3422.42 651.886 3435.75 668.904 3444.23 688.486C3455.2 713.811 3457.46 742.015 3450.67 768.743C3443.88 795.47 3428.41 819.233 3406.65 836.357C3384.89 853.482 3358.06 863.017 3330.29 863.486C3302.53 863.955 3275.38 855.335 3253.05 838.955C3230.72 822.576 3214.44 799.351 3206.73 772.869C3199.03 746.387 3200.32 718.121 3210.42 692.441C3218.22 672.583 3230.96 655.125 3247.31 641.617C3255.28 635.031 3266.94 637.934 3272.32 646.737C3277.7 655.538 3274.7 666.883 3267.16 673.953C3257.66 682.854 3250.21 693.779 3245.4 705.998C3238.31 724.044 3237.4 743.908 3242.82 762.52C3248.23 781.132 3259.67 797.454 3275.37 808.965C3291.06 820.476 3310.14 826.535 3329.65 826.205C3349.16 825.875 3368.02 819.173 3383.31 807.139C3398.6 795.103 3409.48 778.404 3414.25 759.621C3419.03 740.836 3417.44 721.014 3409.73 703.219C3404.51 691.169 3396.68 680.504 3386.89 671.928C3379.11 665.117 3375.72 653.88 3380.79 644.901Z" fill="white"/>
</mask>
<g mask="url(#mask0_1003_60)">
<path d="M3380.79 644.901C3385.87 635.923 3397.42 632.626 3405.62 638.939C3422.42 651.886 3435.75 668.904 3444.23 688.486C3455.2 713.811 3457.46 742.015 3450.67 768.743C3443.88 795.47 3428.41 819.233 3406.65 836.357C3384.89 853.482 3358.06 863.017 3330.29 863.486C3302.53 863.955 3275.38 855.335 3253.05 838.955C3230.72 822.576 3214.44 799.351 3206.73 772.869C3199.03 746.387 3200.32 718.121 3210.42 692.441C3218.22 672.583 3230.96 655.125 3247.31 641.617C3255.28 635.031 3266.94 637.934 3272.32 646.737C3277.7 655.538 3274.7 666.883 3267.16 673.953C3257.66 682.854 3250.21 693.779 3245.4 705.998C3238.31 724.044 3237.4 743.908 3242.82 762.52C3248.23 781.132 3259.67 797.454 3275.37 808.965C3291.06 820.476 3310.14 826.535 3329.65 826.205C3349.16 825.875 3368.02 819.173 3383.31 807.139C3398.6 795.103 3409.48 778.404 3414.25 759.621C3419.03 740.836 3417.44 721.014 3409.73 703.219C3404.51 691.169 3396.68 680.504 3386.89 671.928C3379.11 665.117 3375.72 653.88 3380.79 644.901Z" stroke="#007BC0" stroke-width="70"/>
</g>
<path d="M3308 637.149C3308 626.573 3317.18 618 3328.5 618C3339.82 618 3349 626.573 3349 637.149V688.851C3349 699.427 3339.82 708 3328.5 708C3317.18 708 3308 699.427 3308 688.851V637.149Z" fill="#007BC0"/>
<path d="M3308 421.221C3308 410.605 3316.73 402 3327.5 402C3338.27 402 3347 410.605 3347 421.221V530.779C3347 541.395 3338.27 550 3327.5 550C3316.73 550 3308 541.395 3308 530.779V421.221Z" fill="#007BC0"/>
<path d="M3028.73 585.168C3019.42 579.815 3016.24 567.962 3021.61 558.693C3026.98 549.423 3038.89 546.249 3048.2 551.599L3144.27 606.833C3153.58 612.184 3156.76 624.036 3151.39 633.306C3146.02 642.575 3134.11 645.752 3124.8 640.401L3028.73 585.168Z" fill="#007BC0"/>
<path d="M3048.2 927.401C3038.89 932.752 3026.98 929.575 3021.61 920.306C3016.24 911.036 3019.42 899.184 3028.73 893.833L3124.8 838.599C3134.11 833.249 3146.02 836.423 3151.39 845.693C3156.76 854.962 3153.58 866.815 3144.27 872.168L3048.2 927.401Z" fill="#007BC0"/>
<path d="M3613.34 886.602C3622.58 891.839 3625.74 903.44 3620.41 912.512C3615.07 921.584 3603.26 924.693 3594.02 919.456L3498.66 865.398C3489.42 860.159 3486.26 848.559 3491.59 839.486C3496.93 830.414 3508.74 827.307 3517.98 832.544L3613.34 886.602Z" fill="#007BC0"/>
<path d="M3597.02 551.599C3606.26 546.249 3618.07 549.423 3623.41 558.693C3628.74 567.962 3625.58 579.815 3616.34 585.168L3520.98 640.401C3511.74 645.752 3499.93 642.575 3494.59 633.306C3489.26 624.036 3492.42 612.184 3501.66 606.833L3597.02 551.599Z" fill="#007BC0"/>
<path d="M3308 951.221C3308 940.605 3316.73 932 3327.5 932C3338.27 932 3347 940.605 3347 951.221V1060.78C3347 1071.39 3338.27 1080 3327.5 1080C3316.73 1080 3308 1071.39 3308 1060.78V951.221Z" fill="#007BC0"/>
<path d="M3023.19 371.96C3023.19 371.96 3025.41 370.314 3029.85 367.018C3034.29 363.725 3040.3 361.202 3047.88 359.451C3055.74 357.539 3064.24 358.98 3073.37 363.771C3079.21 366.74 3085.61 370.687 3092.58 375.608C3099.66 380.089 3106.33 384.811 3112.57 389.776C3119.1 394.58 3124.41 398.589 3128.52 401.805C3132.63 405.024 3134.69 406.631 3134.69 406.631L3124.47 331.076C3124.47 331.076 3124.73 329.258 3125.23 325.622C3126.02 321.824 3128.15 317.442 3131.62 312.474C3135.37 307.346 3141.75 302.565 3150.76 298.132C3177.24 285.155 3191.24 287.709 3192.77 305.794C3192.99 309.387 3193.46 315.994 3194.18 325.616C3194.74 334.959 3195.31 345.6 3195.89 357.537C3196.58 369.037 3197.2 380.397 3197.73 391.615C3198.54 402.675 3199.16 411.797 3199.6 418.983C3200.03 426.17 3200.25 429.763 3200.25 429.763L3261.58 530.612C3261.58 530.612 3262.31 531.866 3263.76 534.375C3265.34 536.446 3266.4 539.556 3266.94 543.708C3267.32 547.579 3265.99 552.057 3262.96 557.144C3259.77 561.95 3253.55 567.01 3244.3 572.323C3231.97 579.405 3221.89 582.965 3214.06 583C3206.51 582.872 3200.9 581.261 3197.24 578.161C3193.41 574.784 3190.93 572.12 3189.8 570.167C3189.15 569.052 3186.58 564.951 3182.09 557.861C3177.88 550.61 3172.95 542.106 3167.29 532.347C3161.62 522.587 3155.82 512.908 3149.87 503.311C3144.21 493.551 3139.38 485.546 3135.37 479.292C3131.65 472.88 3129.79 469.673 3129.79 469.673L3022.41 413.118C3022.41 413.118 3020.84 412.348 3017.7 410.804C3014.56 409.26 3011.74 406.977 3009.24 403.952C3006.86 400.488 3006.37 396.118 3007.8 390.84C3009.22 385.562 3014.35 379.268 3023.19 371.96Z" fill="#007BC0"/>
<path d="M3777.81 650.364C3777.81 650.364 3778.14 653.132 3778.78 658.666C3779.43 664.201 3778.62 670.714 3776.36 678.202C3774.09 686.016 3768.6 692.691 3759.86 698.225C3754.36 701.806 3747.73 705.389 3739.97 708.97C3732.53 712.877 3725.09 716.296 3717.65 719.226C3710.21 722.482 3704.06 725.086 3699.21 727.04C3694.36 728.993 3691.93 729.97 3691.93 729.97L3762.77 759.273C3762.77 759.273 3764.23 760.412 3767.14 762.692C3770.05 765.296 3772.8 769.367 3775.39 774.901C3777.98 780.762 3778.95 788.738 3778.3 798.832C3776.36 828.461 3767.14 839.368 3750.64 831.554C3747.41 829.926 3741.42 826.996 3732.69 822.763C3724.28 818.53 3714.74 813.646 3704.06 808.111C3693.71 802.901 3683.52 797.693 3673.5 792.483C3663.47 787.599 3655.22 783.53 3648.75 780.274C3642.28 777.017 3639.05 775.39 3639.05 775.39L3520.66 777.832C3520.66 777.832 3519.2 777.832 3516.29 777.832C3513.7 778.158 3510.47 777.505 3506.59 775.878C3503.03 774.251 3499.79 770.832 3496.88 765.622C3494.29 760.412 3493 752.436 3493 741.691C3493 727.366 3494.94 716.784 3498.82 709.947C3502.7 703.435 3506.91 699.364 3511.44 697.737C3516.29 696.11 3519.85 695.295 3522.11 695.295C3523.41 695.295 3528.26 695.133 3536.67 694.807C3545.08 694.807 3554.94 694.807 3566.27 694.807C3577.59 694.807 3588.91 694.645 3600.23 694.318C3611.55 694.318 3620.93 694.156 3628.37 693.83C3635.81 693.83 3639.53 693.83 3639.53 693.83L3742.39 628.875C3742.39 628.875 3743.85 627.898 3746.76 625.945C3749.67 623.991 3753.07 622.688 3756.95 622.038C3761.16 621.711 3765.2 623.503 3769.08 627.41C3772.96 631.317 3775.87 638.969 3777.81 650.364Z" fill="#007BC0"/>
<path d="M2877.19 822.037C2877.19 822.037 2876.86 819.309 2876.22 813.852C2875.57 808.396 2876.38 801.976 2878.64 794.594C2880.91 786.89 2886.4 780.309 2895.14 774.853C2900.64 771.323 2907.27 767.791 2915.03 764.261C2922.47 760.409 2929.91 757.039 2937.35 754.15C2944.79 750.94 2950.94 748.372 2955.79 746.446C2960.64 744.521 2963.07 743.558 2963.07 743.558L2892.23 714.669C2892.23 714.669 2890.77 713.547 2887.86 711.299C2884.95 708.732 2882.2 704.718 2879.61 699.262C2877.02 693.485 2876.05 685.621 2876.7 675.67C2878.64 646.46 2887.86 635.708 2904.36 643.412C2907.59 645.016 2913.58 647.905 2922.31 652.078C2930.72 656.251 2940.26 661.066 2950.94 666.522C2961.29 671.659 2971.48 676.793 2981.5 681.929C2991.53 686.744 2999.78 690.756 3006.25 693.966C3012.72 697.177 3015.95 698.781 3015.95 698.781L3134.34 696.373C3134.34 696.373 3135.8 696.373 3138.71 696.373C3141.3 696.052 3144.53 696.695 3148.41 698.299C3151.97 699.904 3155.21 703.274 3158.12 708.41C3160.71 713.547 3162 721.41 3162 732.002C3162 746.125 3160.06 756.557 3156.18 763.298C3152.3 769.717 3148.09 773.731 3143.56 775.335C3138.71 776.939 3135.15 777.742 3132.89 777.742C3131.59 777.742 3126.74 777.902 3118.33 778.224C3109.92 778.224 3100.06 778.224 3088.73 778.224C3077.41 778.224 3066.09 778.383 3054.77 778.705C3043.45 778.705 3034.07 778.865 3026.63 779.187C3019.19 779.187 3015.47 779.187 3015.47 779.187L2912.61 843.222C2912.61 843.222 2911.15 844.185 2908.24 846.111C2905.33 848.037 2901.93 849.322 2898.05 849.963C2893.84 850.284 2889.8 848.518 2885.92 844.667C2882.04 840.815 2879.13 833.271 2877.19 822.037Z" fill="#007BC0"/>
<path d="M3164.51 1182.66C3164.51 1182.66 3161.98 1181.58 3156.9 1179.42C3151.82 1177.26 3146.64 1173.37 3141.34 1167.77C3135.76 1162 3132.77 1154.02 3132.38 1143.84C3132.04 1137.39 3132.28 1129.96 3133.08 1121.57C3133.43 1113.3 3134.21 1105.26 3135.41 1097.46C3136.32 1089.51 3137.16 1082.98 3137.9 1077.87C3138.64 1072.77 3139.01 1070.22 3139.01 1070.22L3078.51 1116.4C3078.51 1116.4 3076.8 1117.09 3073.39 1118.46C3069.7 1119.67 3064.84 1120.02 3058.79 1119.52C3052.47 1118.86 3045.14 1115.78 3036.79 1110.28C3012.32 1094.09 3007.56 1080.86 3022.5 1070.59C3025.51 1068.63 3031.01 1064.95 3039 1059.56C3046.83 1054.44 3055.79 1048.68 3065.87 1042.27C3075.51 1035.98 3085.06 1029.82 3094.54 1023.8C3103.73 1017.63 3111.34 1012.57 3117.37 1008.64C3123.39 1004.7 3126.4 1002.74 3126.4 1002.74L3183.38 900.34C3183.38 900.34 3184.11 899.094 3185.56 896.606C3186.57 894.234 3188.74 891.79 3192.08 889.269C3195.25 887.026 3199.8 885.938 3205.73 886.003C3211.49 886.346 3218.99 889.15 3228.21 894.418C3240.51 901.443 3248.63 908.29 3252.56 914.96C3256.22 921.471 3257.62 927.061 3256.75 931.73C3255.73 936.676 3254.65 940.117 3253.52 942.051C3252.88 943.159 3250.6 947.385 3246.68 954.735C3242.48 961.923 3237.56 970.357 3231.91 980.033C3226.26 989.711 3220.75 999.47 3215.38 1009.31C3209.73 1018.98 3205.19 1027.08 3201.76 1033.6C3198.05 1039.96 3196.19 1043.14 3196.19 1043.14L3200.64 1162.92C3200.64 1162.92 3200.75 1164.64 3200.97 1168.09C3201.2 1171.53 3200.62 1175.08 3199.24 1178.71C3197.43 1182.47 3193.87 1185.04 3188.58 1186.45C3183.29 1187.85 3175.27 1186.59 3164.51 1182.66Z" fill="#007BC0"/>
<path d="M3631.81 1095.76C3631.81 1095.76 3629.59 1097.41 3625.15 1100.72C3620.71 1104.02 3614.7 1106.55 3607.12 1108.31C3599.26 1110.23 3590.76 1108.79 3581.63 1103.98C3575.79 1101 3569.39 1097.04 3562.42 1092.1C3555.34 1087.6 3548.67 1082.86 3542.43 1077.88C3535.9 1073.06 3530.59 1069.04 3526.48 1065.81C3522.37 1062.58 3520.31 1060.97 3520.31 1060.97L3530.53 1136.78C3530.53 1136.78 3530.27 1138.61 3529.77 1142.26C3528.98 1146.07 3526.85 1150.46 3523.38 1155.45C3519.63 1160.59 3513.25 1165.39 3504.24 1169.84C3477.76 1182.86 3463.76 1180.3 3462.23 1162.15C3462.02 1158.55 3461.54 1151.92 3460.82 1142.26C3460.26 1132.89 3459.69 1122.21 3459.11 1110.23C3458.42 1098.69 3457.8 1087.3 3457.27 1076.04C3456.46 1064.94 3455.84 1055.79 3455.4 1048.58C3454.97 1041.36 3454.75 1037.76 3454.75 1037.76L3393.42 936.567C3393.42 936.567 3392.69 935.307 3391.24 932.789C3389.66 930.713 3388.6 927.592 3388.06 923.426C3387.68 919.542 3389.01 915.046 3392.04 909.944C3395.23 905.121 3401.45 900.045 3410.7 894.714C3423.03 887.605 3433.11 884.035 3440.94 884C3448.49 884.126 3454.1 885.745 3457.76 888.854C3461.59 892.244 3464.07 894.917 3465.2 896.875C3465.85 897.996 3468.42 902.111 3472.91 909.225C3477.12 916.498 3482.05 925.033 3487.71 934.824C3493.38 944.617 3499.18 954.329 3505.13 963.961C3510.79 973.754 3515.62 981.787 3519.63 988.06C3523.35 994.496 3525.21 997.714 3525.21 997.714L3632.59 1054.46C3632.59 1054.46 3634.16 1055.24 3637.3 1056.78C3640.44 1058.33 3643.26 1060.62 3645.76 1063.66C3648.14 1067.14 3648.63 1071.52 3647.2 1076.82C3645.78 1082.11 3640.65 1088.43 3631.81 1095.76Z" fill="#007BC0"/>
<path d="M3485.49 288.371C3485.49 288.371 3488.02 289.459 3493.1 291.634C3498.18 293.809 3503.36 297.719 3508.66 303.364C3514.24 309.169 3517.23 317.195 3517.62 327.442C3517.96 333.942 3517.72 341.415 3516.92 349.863C3516.57 358.194 3515.79 366.281 3514.59 374.13C3513.68 382.138 3512.85 388.712 3512.1 393.851C3511.36 398.993 3510.99 401.561 3510.99 401.561L3571.49 355.068C3571.49 355.068 3573.2 354.377 3576.61 352.998C3580.3 351.778 3585.16 351.421 3591.21 351.926C3597.53 352.592 3604.86 355.694 3613.21 361.233C3637.68 377.526 3642.44 390.843 3627.5 401.181C3624.49 403.162 3618.99 406.864 3611 412.291C3603.17 417.438 3594.21 423.238 3584.13 429.691C3574.5 436.027 3564.94 442.223 3555.46 448.28C3546.26 454.499 3538.66 459.588 3532.63 463.547C3526.61 467.508 3523.6 469.487 3523.6 469.487L3466.62 572.565C3466.62 572.565 3465.89 573.817 3464.44 576.322C3463.43 578.709 3461.26 581.172 3457.92 583.709C3454.75 585.967 3450.2 587.063 3444.27 586.997C3438.51 586.652 3431.01 583.829 3421.79 578.526C3409.49 571.454 3401.37 564.562 3397.44 557.848C3393.78 551.293 3392.38 545.666 3393.25 540.965C3394.27 535.987 3395.35 532.524 3396.48 530.574C3397.12 529.462 3399.4 525.206 3403.32 517.808C3407.52 510.571 3412.44 502.082 3418.09 492.34C3423.74 482.598 3429.25 472.777 3434.62 462.874C3440.27 453.132 3444.81 444.981 3448.24 438.417C3451.95 432.016 3453.81 428.815 3453.81 428.815L3449.36 308.243C3449.36 308.243 3449.25 306.509 3449.03 303.039C3448.8 299.57 3449.38 296.005 3450.76 292.343C3452.57 288.564 3456.13 285.969 3461.42 284.557C3466.71 283.145 3474.73 284.417 3485.49 288.371Z" fill="#007BC0"/>
<mask id="mask1_1003_60" style="mask-type:luminance" maskUnits="userSpaceOnUse" x="3201" y="635" width="254" height="229">
<path d="M3380.79 644.901C3385.87 635.923 3397.42 632.626 3405.62 638.939C3422.42 651.886 3435.75 668.904 3444.23 688.486C3455.2 713.811 3457.46 742.015 3450.67 768.743C3443.88 795.47 3428.41 819.233 3406.65 836.357C3384.89 853.482 3358.06 863.017 3330.29 863.486C3302.53 863.955 3275.38 855.335 3253.05 838.955C3230.72 822.576 3214.44 799.351 3206.73 772.869C3199.03 746.387 3200.32 718.121 3210.42 692.441C3218.22 672.583 3230.96 655.125 3247.31 641.617C3255.28 635.031 3266.94 637.934 3272.32 646.737C3277.7 655.538 3274.7 666.883 3267.16 673.953C3257.66 682.854 3250.21 693.779 3245.4 705.998C3238.31 724.044 3237.4 743.908 3242.82 762.52C3248.23 781.132 3259.67 797.454 3275.37 808.965C3291.06 820.476 3310.14 826.535 3329.65 826.205C3349.16 825.875 3368.02 819.173 3383.31 807.139C3398.6 795.103 3409.48 778.404 3414.25 759.621C3419.03 740.836 3417.44 721.014 3409.73 703.219C3404.51 691.169 3396.68 680.504 3386.89 671.928C3379.11 665.117 3375.72 653.88 3380.79 644.901Z" fill="white"/>
</mask>
<g mask="url(#mask1_1003_60)">
<path d="M3380.79 644.901C3385.87 635.923 3397.42 632.626 3405.62 638.939C3422.42 651.886 3435.75 668.904 3444.23 688.486C3455.2 713.811 3457.46 742.015 3450.67 768.743C3443.88 795.47 3428.41 819.233 3406.65 836.357C3384.89 853.482 3358.06 863.017 3330.29 863.486C3302.53 863.955 3275.38 855.335 3253.05 838.955C3230.72 822.576 3214.44 799.351 3206.73 772.869C3199.03 746.387 3200.32 718.121 3210.42 692.441C3218.22 672.583 3230.96 655.125 3247.31 641.617C3255.28 635.031 3266.94 637.934 3272.32 646.737C3277.7 655.538 3274.7 666.883 3267.16 673.953C3257.66 682.854 3250.21 693.779 3245.4 705.998C3238.31 724.044 3237.4 743.908 3242.82 762.52C3248.23 781.132 3259.67 797.454 3275.37 808.965C3291.06 820.476 3310.14 826.535 3329.65 826.205C3349.16 825.875 3368.02 819.173 3383.31 807.139C3398.6 795.103 3409.48 778.404 3414.25 759.621C3419.03 740.836 3417.44 721.014 3409.73 703.219C3404.51 691.169 3396.68 680.504 3386.89 671.928C3379.11 665.117 3375.72 653.88 3380.79 644.901Z" stroke="#0096E8" stroke-width="70"/>
</g>
<path d="M3308 637.149C3308 626.573 3317.18 618 3328.5 618C3339.82 618 3349 626.573 3349 637.149V688.851C3349 699.427 3339.82 708 3328.5 708C3317.18 708 3308 699.427 3308 688.851V637.149Z" fill="#0096E8"/>
<path d="M3308 421.221C3308 410.605 3316.73 402 3327.5 402C3338.27 402 3347 410.605 3347 421.221V530.779C3347 541.395 3338.27 550 3327.5 550C3316.73 550 3308 541.395 3308 530.779V421.221Z" fill="#0096E8"/>
<path d="M3028.73 585.168C3019.42 579.815 3016.24 567.962 3021.61 558.693C3026.98 549.423 3038.89 546.249 3048.2 551.599L3144.27 606.833C3153.58 612.184 3156.76 624.036 3151.39 633.306C3146.02 642.575 3134.11 645.752 3124.8 640.401L3028.73 585.168Z" fill="#0096E8"/>
<path d="M3048.2 927.401C3038.89 932.752 3026.98 929.575 3021.61 920.306C3016.24 911.036 3019.42 899.184 3028.73 893.833L3124.8 838.599C3134.11 833.249 3146.02 836.423 3151.39 845.693C3156.76 854.962 3153.58 866.815 3144.27 872.168L3048.2 927.401Z" fill="#0096E8"/>
<path d="M3613.34 886.602C3622.58 891.839 3625.74 903.44 3620.41 912.512C3615.07 921.584 3603.26 924.693 3594.02 919.456L3498.66 865.398C3489.42 860.159 3486.26 848.559 3491.59 839.486C3496.93 830.414 3508.74 827.307 3517.98 832.544L3613.34 886.602Z" fill="#0096E8"/>
<path d="M3597.02 551.599C3606.26 546.249 3618.07 549.423 3623.41 558.693C3628.74 567.962 3625.58 579.815 3616.34 585.168L3520.98 640.401C3511.74 645.752 3499.93 642.575 3494.59 633.306C3489.26 624.036 3492.42 612.184 3501.66 606.833L3597.02 551.599Z" fill="#0096E8"/>
<path d="M3308 951.221C3308 940.605 3316.73 932 3327.5 932C3338.27 932 3347 940.605 3347 951.221V1060.78C3347 1071.39 3338.27 1080 3327.5 1080C3316.73 1080 3308 1071.39 3308 1060.78V951.221Z" fill="#0096E8"/>
<path d="M3023.19 371.96C3023.19 371.96 3025.41 370.314 3029.85 367.018C3034.29 363.725 3040.3 361.202 3047.88 359.451C3055.74 357.539 3064.24 358.98 3073.37 363.771C3079.21 366.74 3085.61 370.687 3092.58 375.608C3099.66 380.089 3106.33 384.811 3112.57 389.776C3119.1 394.58 3124.41 398.589 3128.52 401.805C3132.63 405.024 3134.69 406.631 3134.69 406.631L3124.47 331.076C3124.47 331.076 3124.73 329.258 3125.23 325.622C3126.02 321.824 3128.15 317.442 3131.62 312.474C3135.37 307.346 3141.75 302.565 3150.76 298.132C3177.24 285.155 3191.24 287.709 3192.77 305.794C3192.99 309.387 3193.46 315.994 3194.18 325.616C3194.74 334.959 3195.31 345.6 3195.89 357.537C3196.58 369.037 3197.2 380.397 3197.73 391.615C3198.54 402.675 3199.16 411.797 3199.6 418.983C3200.03 426.17 3200.25 429.763 3200.25 429.763L3261.58 530.612C3261.58 530.612 3262.31 531.866 3263.76 534.375C3265.34 536.446 3266.4 539.556 3266.94 543.708C3267.32 547.579 3265.99 552.057 3262.96 557.144C3259.77 561.95 3253.55 567.01 3244.3 572.323C3231.97 579.405 3221.89 582.965 3214.06 583C3206.51 582.872 3200.9 581.261 3197.24 578.161C3193.41 574.784 3190.93 572.12 3189.8 570.167C3189.15 569.052 3186.58 564.951 3182.09 557.861C3177.88 550.61 3172.95 542.106 3167.29 532.347C3161.62 522.587 3155.82 512.908 3149.87 503.311C3144.21 493.551 3139.38 485.546 3135.37 479.292C3131.65 472.88 3129.79 469.673 3129.79 469.673L3022.41 413.118C3022.41 413.118 3020.84 412.348 3017.7 410.804C3014.56 409.26 3011.74 406.977 3009.24 403.952C3006.86 400.488 3006.37 396.118 3007.8 390.84C3009.22 385.562 3014.35 379.268 3023.19 371.96Z" fill="#0096E8"/>
<path d="M3777.81 650.364C3777.81 650.364 3778.14 653.132 3778.78 658.666C3779.43 664.201 3778.62 670.714 3776.36 678.202C3774.09 686.016 3768.6 692.691 3759.86 698.225C3754.36 701.806 3747.73 705.389 3739.97 708.97C3732.53 712.877 3725.09 716.296 3717.65 719.226C3710.21 722.482 3704.06 725.086 3699.21 727.04C3694.36 728.993 3691.93 729.97 3691.93 729.97L3762.77 759.273C3762.77 759.273 3764.23 760.412 3767.14 762.692C3770.05 765.296 3772.8 769.367 3775.39 774.901C3777.98 780.762 3778.95 788.738 3778.3 798.832C3776.36 828.461 3767.14 839.368 3750.64 831.554C3747.41 829.926 3741.42 826.996 3732.69 822.763C3724.28 818.53 3714.74 813.646 3704.06 808.111C3693.71 802.901 3683.52 797.693 3673.5 792.483C3663.47 787.599 3655.22 783.53 3648.75 780.274C3642.28 777.017 3639.05 775.39 3639.05 775.39L3520.66 777.832C3520.66 777.832 3519.2 777.832 3516.29 777.832C3513.7 778.158 3510.47 777.505 3506.59 775.878C3503.03 774.251 3499.79 770.832 3496.88 765.622C3494.29 760.412 3493 752.436 3493 741.691C3493 727.366 3494.94 716.784 3498.82 709.947C3502.7 703.435 3506.91 699.364 3511.44 697.737C3516.29 696.11 3519.85 695.295 3522.11 695.295C3523.41 695.295 3528.26 695.133 3536.67 694.807C3545.08 694.807 3554.94 694.807 3566.27 694.807C3577.59 694.807 3588.91 694.645 3600.23 694.318C3611.55 694.318 3620.93 694.156 3628.37 693.83C3635.81 693.83 3639.53 693.83 3639.53 693.83L3742.39 628.875C3742.39 628.875 3743.85 627.898 3746.76 625.945C3749.67 623.991 3753.07 622.688 3756.95 622.038C3761.16 621.711 3765.2 623.503 3769.08 627.41C3772.96 631.317 3775.87 638.969 3777.81 650.364Z" fill="#0096E8"/>
<path d="M2877.19 822.037C2877.19 822.037 2876.86 819.309 2876.22 813.852C2875.57 808.396 2876.38 801.976 2878.64 794.594C2880.91 786.89 2886.4 780.309 2895.14 774.853C2900.64 771.323 2907.27 767.791 2915.03 764.261C2922.47 760.409 2929.91 757.039 2937.35 754.15C2944.79 750.94 2950.94 748.372 2955.79 746.446C2960.64 744.521 2963.07 743.558 2963.07 743.558L2892.23 714.669C2892.23 714.669 2890.77 713.547 2887.86 711.299C2884.95 708.732 2882.2 704.718 2879.61 699.262C2877.02 693.485 2876.05 685.621 2876.7 675.67C2878.64 646.46 2887.86 635.708 2904.36 643.412C2907.59 645.016 2913.58 647.905 2922.31 652.078C2930.72 656.251 2940.26 661.066 2950.94 666.522C2961.29 671.659 2971.48 676.793 2981.5 681.929C2991.53 686.744 2999.78 690.756 3006.25 693.966C3012.72 697.177 3015.95 698.781 3015.95 698.781L3134.34 696.373C3134.34 696.373 3135.8 696.373 3138.71 696.373C3141.3 696.052 3144.53 696.695 3148.41 698.299C3151.97 699.904 3155.21 703.274 3158.12 708.41C3160.71 713.547 3162 721.41 3162 732.002C3162 746.125 3160.06 756.557 3156.18 763.298C3152.3 769.717 3148.09 773.731 3143.56 775.335C3138.71 776.939 3135.15 777.742 3132.89 777.742C3131.59 777.742 3126.74 777.902 3118.33 778.224C3109.92 778.224 3100.06 778.224 3088.73 778.224C3077.41 778.224 3066.09 778.383 3054.77 778.705C3043.45 778.705 3034.07 778.865 3026.63 779.187C3019.19 779.187 3015.47 779.187 3015.47 779.187L2912.61 843.222C2912.61 843.222 2911.15 844.185 2908.24 846.111C2905.33 848.037 2901.93 849.322 2898.05 849.963C2893.84 850.284 2889.8 848.518 2885.92 844.667C2882.04 840.815 2879.13 833.271 2877.19 822.037Z" fill="#0096E8"/>
<path d="M3164.51 1182.66C3164.51 1182.66 3161.98 1181.58 3156.9 1179.42C3151.82 1177.26 3146.64 1173.37 3141.34 1167.77C3135.76 1162 3132.77 1154.02 3132.38 1143.84C3132.04 1137.39 3132.28 1129.96 3133.08 1121.57C3133.43 1113.3 3134.21 1105.26 3135.41 1097.46C3136.32 1089.51 3137.16 1082.98 3137.9 1077.87C3138.64 1072.77 3139.01 1070.22 3139.01 1070.22L3078.51 1116.4C3078.51 1116.4 3076.8 1117.09 3073.39 1118.46C3069.7 1119.67 3064.84 1120.02 3058.79 1119.52C3052.47 1118.86 3045.14 1115.78 3036.79 1110.28C3012.32 1094.09 3007.56 1080.86 3022.5 1070.59C3025.51 1068.63 3031.01 1064.95 3039 1059.56C3046.83 1054.44 3055.79 1048.68 3065.87 1042.27C3075.51 1035.98 3085.06 1029.82 3094.54 1023.8C3103.73 1017.63 3111.34 1012.57 3117.37 1008.64C3123.39 1004.7 3126.4 1002.74 3126.4 1002.74L3183.38 900.34C3183.38 900.34 3184.11 899.094 3185.56 896.606C3186.57 894.234 3188.74 891.79 3192.08 889.269C3195.25 887.026 3199.8 885.938 3205.73 886.003C3211.49 886.346 3218.99 889.15 3228.21 894.418C3240.51 901.443 3248.63 908.29 3252.56 914.96C3256.22 921.471 3257.62 927.061 3256.75 931.73C3255.73 936.676 3254.65 940.117 3253.52 942.051C3252.88 943.159 3250.6 947.385 3246.68 954.735C3242.48 961.923 3237.56 970.357 3231.91 980.033C3226.26 989.711 3220.75 999.47 3215.38 1009.31C3209.73 1018.98 3205.19 1027.08 3201.76 1033.6C3198.05 1039.96 3196.19 1043.14 3196.19 1043.14L3200.64 1162.92C3200.64 1162.92 3200.75 1164.64 3200.97 1168.09C3201.2 1171.53 3200.62 1175.08 3199.24 1178.71C3197.43 1182.47 3193.87 1185.04 3188.58 1186.45C3183.29 1187.85 3175.27 1186.59 3164.51 1182.66Z" fill="#0096E8"/>
<path d="M3631.81 1095.76C3631.81 1095.76 3629.59 1097.41 3625.15 1100.72C3620.71 1104.02 3614.7 1106.55 3607.12 1108.31C3599.26 1110.23 3590.76 1108.79 3581.63 1103.98C3575.79 1101 3569.39 1097.04 3562.42 1092.1C3555.34 1087.6 3548.67 1082.86 3542.43 1077.88C3535.9 1073.06 3530.59 1069.04 3526.48 1065.81C3522.37 1062.58 3520.31 1060.97 3520.31 1060.97L3530.53 1136.78C3530.53 1136.78 3530.27 1138.61 3529.77 1142.26C3528.98 1146.07 3526.85 1150.46 3523.38 1155.45C3519.63 1160.59 3513.25 1165.39 3504.24 1169.84C3477.76 1182.86 3463.76 1180.3 3462.23 1162.15C3462.02 1158.55 3461.54 1151.92 3460.82 1142.26C3460.26 1132.89 3459.69 1122.21 3459.11 1110.23C3458.42 1098.69 3457.8 1087.3 3457.27 1076.04C3456.46 1064.94 3455.84 1055.79 3455.4 1048.58C3454.97 1041.36 3454.75 1037.76 3454.75 1037.76L3393.42 936.567C3393.42 936.567 3392.69 935.307 3391.24 932.789C3389.66 930.713 3388.6 927.592 3388.06 923.426C3387.68 919.542 3389.01 915.046 3392.04 909.944C3395.23 905.121 3401.45 900.045 3410.7 894.714C3423.03 887.605 3433.11 884.035 3440.94 884C3448.49 884.126 3454.1 885.745 3457.76 888.854C3461.59 892.244 3464.07 894.917 3465.2 896.875C3465.85 897.996 3468.42 902.111 3472.91 909.225C3477.12 916.498 3482.05 925.033 3487.71 934.824C3493.38 944.617 3499.18 954.329 3505.13 963.961C3510.79 973.754 3515.62 981.787 3519.63 988.06C3523.35 994.496 3525.21 997.714 3525.21 997.714L3632.59 1054.46C3632.59 1054.46 3634.16 1055.24 3637.3 1056.78C3640.44 1058.33 3643.26 1060.62 3645.76 1063.66C3648.14 1067.14 3648.63 1071.52 3647.2 1076.82C3645.78 1082.11 3640.65 1088.43 3631.81 1095.76Z" fill="#0096E8"/>
<path d="M3485.49 288.371C3485.49 288.371 3488.02 289.459 3493.1 291.634C3498.18 293.809 3503.36 297.719 3508.66 303.364C3514.24 309.169 3517.23 317.195 3517.62 327.442C3517.96 333.942 3517.72 341.415 3516.92 349.863C3516.57 358.194 3515.79 366.281 3514.59 374.13C3513.68 382.138 3512.85 388.712 3512.1 393.851C3511.36 398.993 3510.99 401.561 3510.99 401.561L3571.49 355.068C3571.49 355.068 3573.2 354.377 3576.61 352.998C3580.3 351.778 3585.16 351.421 3591.21 351.926C3597.53 352.592 3604.86 355.694 3613.21 361.233C3637.68 377.526 3642.44 390.843 3627.5 401.181C3624.49 403.162 3618.99 406.864 3611 412.291C3603.17 417.438 3594.21 423.238 3584.13 429.691C3574.5 436.027 3564.94 442.223 3555.46 448.28C3546.26 454.499 3538.66 459.588 3532.63 463.547C3526.61 467.508 3523.6 469.487 3523.6 469.487L3466.62 572.565C3466.62 572.565 3465.89 573.817 3464.44 576.322C3463.43 578.709 3461.26 581.172 3457.92 583.709C3454.75 585.967 3450.2 587.063 3444.27 586.997C3438.51 586.652 3431.01 583.829 3421.79 578.526C3409.49 571.454 3401.37 564.562 3397.44 557.848C3393.78 551.293 3392.38 545.666 3393.25 540.965C3394.27 535.987 3395.35 532.524 3396.48 530.574C3397.12 529.462 3399.4 525.206 3403.32 517.808C3407.52 510.571 3412.44 502.082 3418.09 492.34C3423.74 482.598 3429.25 472.777 3434.62 462.874C3440.27 453.132 3444.81 444.981 3448.24 438.417C3451.95 432.016 3453.81 428.815 3453.81 428.815L3449.36 308.243C3449.36 308.243 3449.25 306.509 3449.03 303.039C3448.8 299.57 3449.38 296.005 3450.76 292.343C3452.57 288.564 3456.13 285.969 3461.42 284.557C3466.71 283.145 3474.73 284.417 3485.49 288.371Z" fill="#0096E8"/>
<path d="M35 750C35 681.333 50.3333 620 81 566C112.333 511.333 154.667 469 208 439C262 408.333 322.333 393 389 393C467 393 535.333 413 594 453C652.667 493 693.667 548.333 717 619H556C540 585.667 517.333 560.667 488 544C459.333 527.333 426 519 388 519C347.333 519 311 528.667 279 548C247.667 566.667 223 593.333 205 628C187.667 662.667 179 703.333 179 750C179 796 187.667 836.667 205 872C223 906.667 247.667 933.667 279 953C311 971.667 347.333 981 388 981C426 981 459.333 972.667 488 956C517.333 938.667 540 913.333 556 880H717C693.667 951.333 652.667 1007 594 1047C536 1086.33 467.667 1106 389 1106C322.333 1106 262 1091 208 1061C154.667 1030.33 112.333 988 81 934C50.3333 880 35 818.667 35 750ZM1160.58 1107C1095.24 1107 1035.24 1091.67 980.578 1061C925.911 1030.33 882.578 988 850.578 934C818.578 879.333 802.578 817.667 802.578 749C802.578 681 818.578 620 850.578 566C882.578 511.333 925.911 468.667 980.578 438C1035.24 407.333 1095.24 392 1160.58 392C1226.58 392 1286.58 407.333 1340.58 438C1395.24 468.667 1438.24 511.333 1469.58 566C1501.58 620 1517.58 681 1517.58 749C1517.58 817.667 1501.58 879.333 1469.58 934C1438.24 988 1395.24 1030.33 1340.58 1061C1285.91 1091.67 1225.91 1107 1160.58 1107ZM1160.58 982C1202.58 982 1239.58 972.667 1271.58 954C1303.58 934.667 1328.58 907.333 1346.58 872C1364.58 836.667 1373.58 795.667 1373.58 749C1373.58 702.333 1364.58 661.667 1346.58 627C1328.58 591.667 1303.58 564.667 1271.58 546C1239.58 527.333 1202.58 518 1160.58 518C1118.58 518 1081.24 527.333 1048.58 546C1016.58 564.667 991.578 591.667 973.578 627C955.578 661.667 946.578 702.333 946.578 749C946.578 795.667 955.578 836.667 973.578 872C991.578 907.333 1016.58 934.667 1048.58 954C1081.24 972.667 1118.58 982 1160.58 982ZM1761.73 989H1991.73V1100H1621.73V402H1761.73V989ZM2324.72 402C2398.05 402 2462.39 416.333 2517.72 445C2573.72 473.667 2616.72 514.667 2646.72 568C2677.39 620.667 2692.72 682 2692.72 752C2692.72 822 2677.39 883.333 2646.72 936C2616.72 988 2573.72 1028.33 2517.72 1057C2462.39 1085.67 2398.05 1100 2324.72 1100H2080.72V402H2324.72ZM2319.72 981C2393.05 981 2449.72 961 2489.72 921C2529.72 881 2549.72 824.667 2549.72 752C2549.72 679.333 2529.72 622.667 2489.72 582C2449.72 540.667 2393.05 520 2319.72 520H2220.72V981H2319.72Z" fill="#0067C7"/>
<path d="M4236 1107C4187.33 1107 4143.33 1098.67 4104 1082C4065.33 1065.33 4034.67 1041.33 4012 1010C3989.33 978.667 3977.67 941.667 3977 899H4127C4129 927.667 4139 950.333 4157 967C4175.67 983.667 4201 992 4233 992C4265.67 992 4291.33 984.333 4310 969C4328.67 953 4338 932.333 4338 907C4338 886.333 4331.67 869.333 4319 856C4306.33 842.667 4290.33 832.333 4271 825C4252.33 817 4226.33 808.333 4193 799C4147.67 785.667 4110.67 772.667 4082 760C4054 746.667 4029.67 727 4009 701C3989 674.333 3979 639 3979 595C3979 553.667 3989.33 517.667 4010 487C4030.67 456.333 4059.67 433 4097 417C4134.33 400.333 4177 392 4225 392C4297 392 4355.33 409.667 4400 445C4445.33 479.667 4470.33 528.333 4475 591H4321C4319.67 567 4309.33 547.333 4290 532C4271.33 516 4246.33 508 4215 508C4187.67 508 4165.67 515 4149 529C4133 543 4125 563.333 4125 590C4125 608.667 4131 624.333 4143 637C4155.67 649 4171 659 4189 667C4207.67 674.333 4233.67 683 4267 693C4312.33 706.333 4349.33 719.667 4378 733C4406.67 746.333 4431.33 766.333 4452 793C4472.67 819.667 4483 854.667 4483 898C4483 935.333 4473.33 970 4454 1002C4434.67 1034 4406.33 1059.67 4369 1079C4331.67 1097.67 4287.33 1107 4236 1107ZM5079.38 402V515H4893.38V1100H4753.38V515H4567.38V402H5079.38ZM5609.52 967H5331.52L5285.52 1100H5138.52L5389.52 401H5552.52L5803.52 1100H5655.52L5609.52 967ZM5571.52 855L5470.52 563L5369.52 855H5571.52ZM6257.34 1100L6103.34 828H6037.34V1100H5897.34V402H6159.34C6213.34 402 6259.34 411.667 6297.34 431C6335.34 449.667 6363.68 475.333 6382.34 508C6401.68 540 6411.34 576 6411.34 616C6411.34 662 6398.01 703.667 6371.34 741C6344.68 777.667 6305.01 803 6252.34 817L6419.34 1100H6257.34ZM6037.34 723H6154.34C6192.34 723 6220.68 714 6239.34 696C6258.01 677.333 6267.34 651.667 6267.34 619C6267.34 587 6258.01 562.333 6239.34 545C6220.68 527 6192.34 518 6154.34 518H6037.34V723ZM7012.97 402V515H6826.97V1100H6686.97V515H6500.97V402H7012.97Z" fill="#0096E8"/>
</svg>
