<?xml version="1.0" standalone="no"?>
<!DOCTYPE svg PUBLIC "-//W3C//DTD SVG 20010904//EN"
 "http://www.w3.org/TR/2001/REC-SVG-20010904/DTD/svg10.dtd">
<svg version="1.0" xmlns="http://www.w3.org/2000/svg"
 width="598.000000pt" height="608.000000pt" viewBox="0 0 598.000000 608.000000"
 preserveAspectRatio="xMidYMid meet">

<g transform="translate(0.000000,608.000000) scale(0.100000,-0.100000)"
fill="#1683A6" stroke="none">
<path d="M1880 6000 c-300 -19 -675 -72 -905 -129 -516 -128 -824 -300 -933
-520 l-37 -75 0 -2210 c0 -2164 0 -2212 19 -2263 96 -257 512 -473 1141 -593
428 -82 745 -101 1515 -94 63 1 756 1 1540 0 1385 -1 1426 0 1475 18 69 27
146 102 181 179 l29 62 0 380 c0 424 -2 439 -70 528 -34 44 -34 45 -14 63 11
9 34 47 52 83 l32 66 0 390 0 390 -29 63 c-35 75 -113 151 -183 178 -44 17
-93 19 -590 22 l-543 3 -2 1377 -3 1377 -28 58 c-154 312 -764 544 -1667 632
-195 20 -765 28 -980 15z m736 -180 c702 -41 1290 -180 1583 -375 206 -136
235 -273 88 -412 -312 -295 -1304 -489 -2272 -444 -650 29 -1191 139 -1530
309 -397 199 -393 421 9 616 337 164 805 265 1416 305 184 12 503 12 706 1z
m-2209 -1083 c303 -153 757 -262 1293 -312 240 -22 706 -30 940 -16 753 46
1355 196 1672 416 l63 44 3 -566 c3 -651 8 -609 -95 -703 -140 -128 -458 -258
-819 -334 -814 -170 -1881 -146 -2595 59 -358 103 -590 232 -660 367 -18 35
-19 64 -19 607 l0 571 73 -49 c39 -27 104 -65 144 -84z m-122 -1358 c87 -57
146 -87 272 -138 1041 -419 3047 -336 3751 155 35 24 65 44 67 44 3 0 5 -202
5 -450 l0 -449 -797 -3 -798 -3 -57 -28 c-72 -35 -134 -97 -167 -167 -26 -54
-26 -59 -31 -335 l-5 -280 -145 -3 c-182 -4 -558 13 -755 33 -725 76 -1300
282 -1416 507 -18 35 -19 65 -19 608 0 454 3 569 13 563 6 -4 44 -29 82 -54z
m5366 -1047 c69 -43 70 -47 67 -462 l-3 -371 -42 -40 -42 -39 -1403 0 c-1350
0 -1405 1 -1438 19 -19 10 -44 34 -55 52 -19 32 -20 52 -20 394 0 319 2 364
17 391 9 17 24 36 32 43 49 41 32 40 1471 38 l1380 -2 36 -23z m-5366 -383
c200 -132 500 -237 883 -309 341 -64 603 -89 1046 -98 l319 -7 14 -55 c12 -47
31 -84 77 -145 6 -9 0 -25 -21 -51 -67 -87 -68 -91 -71 -499 -2 -298 0 -381
12 -425 8 -30 12 -57 10 -60 -23 -23 -690 -2 -974 31 -707 80 -1260 282 -1371
500 -18 36 -19 64 -19 609 0 454 3 569 13 563 6 -4 44 -29 82 -54z m5363 -739
c18 -11 41 -34 52 -52 19 -31 20 -51 20 -393 0 -410 0 -410 -80 -452 l-43 -23
-1376 0 -1377 0 -44 22 c-26 14 -53 37 -65 58 -19 33 -20 52 -20 396 l0 360
24 36 c51 73 -79 67 1476 68 1380 0 1400 0 1433 -20z"/>
<path d="M3090 1973 c-62 -23 -81 -103 -35 -148 23 -24 39 -29 80 -26 26 3 75
56 75 82 0 62 -65 112 -120 92z"/>
<path d="M4044 1970 c-55 -22 -71 -99 -30 -147 l24 -28 706 0 706 0 27 27 c39
40 38 91 -5 129 l-32 29 -688 -1 c-378 0 -697 -4 -708 -9z"/>
<path d="M3082 834 c-84 -35 -61 -166 30 -166 47 0 73 15 88 51 31 77 -42 148
-118 115z"/>
<path d="M4016 825 c-34 -32 -35 -83 -2 -122 l24 -28 694 -3 c491 -2 701 1
720 9 15 6 34 27 43 46 14 29 15 40 4 64 -25 62 13 59 -755 59 l-701 0 -27
-25z"/>
</g>
</svg>
